<svg preserveAspectRatio="none" width="100%" height="100%" overflow="visible" style="display: block;" viewBox="0 0 40 40" fill="none" xmlns="http://www.w3.org/2000/svg">
<path id="Vector" d="M20 0C25.3043 0 30.3914 2.10714 34.1421 5.85786C37.8929 9.60859 40 14.6957 40 20C40 25.3043 37.8929 30.3914 34.1421 34.1421C30.3914 37.8929 25.3043 40 20 40C14.6957 40 9.60859 37.8929 5.85786 34.1421C2.10714 30.3914 0 25.3043 0 20C0 14.6957 2.10714 9.60859 5.85786 5.85786C9.60859 2.10714 14.6957 0 20 0ZM20 27.474C17.8716 27.4729 15.7803 28.0314 13.9358 29.0936C12.0913 30.1557 10.5586 31.6842 9.49117 33.5256C12.4941 35.8652 16.1932 37.1333 20 37.1282C23.8061 37.1318 27.5041 35.8626 30.5058 33.5226C29.4383 31.6821 27.9058 30.1546 26.062 29.093C24.2181 28.0314 22.1276 27.4731 20 27.474ZM20 2.86577C16.6803 2.86779 13.4327 3.83411 10.652 5.64727C7.87121 7.46042 5.67703 10.0423 4.33615 13.0791C2.99527 16.1159 2.56543 19.4769 3.09889 22.7534C3.63235 26.0299 5.10613 29.0809 7.34108 31.5356C8.69873 29.4097 10.5703 27.6602 12.7828 26.4489C14.9954 25.2376 17.4776 24.6035 20 24.6052C25.3178 24.6052 29.9894 27.3713 32.6589 31.5325C34.8929 29.0778 36.3658 26.0271 36.8987 22.7511C37.4317 19.475 37.0016 16.1148 35.6608 13.0785C34.3201 10.0423 32.1263 7.46084 29.3462 5.64783C26.566 3.83483 23.3191 2.86833 20 2.86577ZM20 9.90186C20.9489 9.87417 21.8938 10.0372 22.7786 10.3812C23.6634 10.7252 24.4702 11.2433 25.1512 11.9047C25.8323 12.5661 26.3736 13.3575 26.7433 14.2319C27.113 15.1063 27.3035 16.046 27.3035 16.9953C27.3035 17.9447 27.113 18.8844 26.7433 19.7588C26.3736 20.6332 25.8323 21.4245 25.1512 22.086C24.4702 22.7474 23.6634 23.2654 22.7786 23.6095C21.8938 23.9535 20.9489 24.1165 20 24.0888C18.1436 24.0505 16.3762 23.2862 15.0769 21.9598C13.7776 20.6334 13.0499 18.8506 13.0499 16.9938C13.0499 15.1371 13.7776 13.3543 15.0769 12.0279C16.3762 10.7015 18.1436 9.94016 20 9.90186ZM20 12.7646C18.8787 12.7646 17.8034 13.21 17.0106 14.0029C16.2177 14.7957 15.7723 15.871 15.7723 16.9923C15.7723 18.1136 16.2177 19.1889 17.0106 19.9817C17.8034 20.7746 18.8787 21.22 20 21.22C21.1213 21.22 22.1966 20.7746 22.9894 19.9817C23.7823 19.1889 24.2277 18.1136 24.2277 16.9923C24.2277 15.871 23.7823 14.7957 22.9894 14.0029C22.1966 13.21 21.1213 12.7646 20 12.7646Z" fill="var(--fill-0, black)"/>
</svg>
