<svg width="41" height="41" viewBox="0 0 41 41" fill="none" xmlns="http://www.w3.org/2000/svg">
<rect x="0.5" y="0.5" width="40" height="40" rx="20" fill="#131313" fill-opacity="0.2"/>
<rect x="0.5" y="0.5" width="40" height="40" rx="20" stroke="white"/>
<path d="M27.031 20.146C29.1831 20.146 31 18.4154 31 16.3232C31 14.231 29.2064 12.5 27.031 12.5C24.8631 12.5 23.0695 14.231 23.0695 16.3232C23.0695 18.4302 24.8631 20.146 27.031 20.146ZM16.3398 24.8421H25.4403C25.744 24.8421 26.0091 24.6015 26.0091 24.2775C26.0091 23.9544 25.744 23.7133 25.4403 23.7133H16.4725C16.0278 23.7133 15.7547 23.4122 15.685 22.9533L15.5676 22.1629H25.4556C26.2668 22.1629 26.7891 21.8318 27.0854 21.1847C26.4149 21.1847 25.783 21.0569 25.1984 20.8083C25.0814 20.9589 24.9332 21.0265 24.7146 21.0265L15.3884 21.0341L14.7257 16.6695H22.0244C21.9857 16.3232 22.009 15.8715 22.0634 15.5331H14.554L14.4138 14.577C14.3279 13.9979 14.1175 13.7041 13.3221 13.7041H10.5771C10.2651 13.7041 10 13.9675 10 14.2686C10 14.577 10.2651 14.8405 10.5771 14.8405H13.2126L14.4606 23.1039C14.6241 24.1726 15.2091 24.8421 16.3398 24.8421ZM27.0385 18.8066C26.7659 18.8066 26.524 18.6256 26.524 18.3477V16.7821H25.0345C24.9086 16.7815 24.788 16.733 24.6989 16.647C24.6099 16.5611 24.5596 16.4447 24.559 16.3232C24.559 16.0749 24.7694 15.8639 25.0345 15.8639H26.524V14.3063C26.524 14.0204 26.7659 13.8394 27.0389 13.8394C27.3115 13.8394 27.5451 14.0204 27.5451 14.3063V15.8639H29.035C29.3001 15.8639 29.5187 16.0746 29.5187 16.3232C29.5187 16.5718 29.3001 16.7821 29.035 16.7821H27.5455V18.3477C27.5455 18.626 27.3111 18.8066 27.0385 18.8066ZM16.9562 28.4999C17.1226 28.5013 17.2876 28.4707 17.4415 28.4099C17.5955 28.3491 17.7353 28.2593 17.853 28.1458C17.9706 28.0323 18.0636 27.8972 18.1265 27.7486C18.1895 27.6 18.2211 27.4408 18.2196 27.2803C18.2203 27.12 18.188 26.9611 18.1247 26.8129C18.0614 26.6647 17.9684 26.5301 17.8509 26.4168C17.7334 26.3034 17.5938 26.2137 17.4402 26.1527C17.2866 26.0917 17.122 26.0607 16.9559 26.0614C16.7896 26.06 16.6247 26.0907 16.4708 26.1515C16.3169 26.2123 16.1771 26.302 16.0595 26.4155C15.942 26.529 15.849 26.664 15.7861 26.8125C15.7231 26.961 15.6914 27.1202 15.6929 27.2807C15.6909 27.4413 15.7223 27.6007 15.785 27.7495C15.8478 27.8983 15.9408 28.0334 16.0585 28.147C16.1762 28.2606 16.3163 28.3504 16.4705 28.411C16.6246 28.4716 16.7898 28.5018 16.9562 28.4999ZM24.2552 28.4999C24.4216 28.5013 24.5865 28.4706 24.7404 28.4098C24.8943 28.349 25.0341 28.2592 25.1517 28.1457C25.2693 28.0321 25.3622 27.8971 25.4252 27.7486C25.4881 27.6 25.5197 27.4408 25.5182 27.2803C25.5189 27.12 25.4867 26.9613 25.4234 26.8131C25.3602 26.6649 25.2672 26.5303 25.1498 26.417C25.0324 26.3037 24.8929 26.2139 24.7393 26.1529C24.5858 26.0919 24.4213 26.0608 24.2552 26.0614C23.5454 26.0614 22.9765 26.6032 22.9765 27.2807C22.9765 27.9654 23.5454 28.4999 24.2552 28.4999Z" fill="white"/>
</svg>
