<svg width="25" height="25" viewBox="0 0 25 25" fill="none" xmlns="http://www.w3.org/2000/svg">
<path d="M12.5278 8.44028C12.3083 8.44028 12.138 8.34213 12.0167 8.14583C11.8963 7.95046 11.8963 7.75463 12.0167 7.55833L15.6792 1.17778C15.8106 0.965741 15.9796 0.831018 16.1861 0.773611C16.3926 0.715278 16.6042 0.722685 16.8208 0.795833C18.3653 1.35324 19.7644 2.22083 21.0181 3.39861C22.2718 4.57639 23.2431 5.93982 23.9319 7.48889C24.0477 7.75463 24.0435 7.97963 23.9194 8.16389C23.7963 8.34815 23.5903 8.44028 23.3014 8.44028H12.5278ZM7.9625 10.6222L4.27639 4.12222C4.14491 3.90926 4.10741 3.68796 4.16389 3.45833C4.2213 3.2287 4.33519 3.04815 4.50556 2.91667C5.61667 1.98704 6.85833 1.26852 8.23055 0.761111C9.60278 0.253704 11.0259 0 12.5 0C12.7222 0 12.9708 0.00833318 13.2458 0.0249998C13.5199 0.0425924 13.7778 0.0657408 14.0194 0.0944446C14.2907 0.122222 14.4782 0.233796 14.5819 0.429167C14.6866 0.625463 14.6667 0.853704 14.5222 1.11389L8.99028 10.6222C8.86991 10.8185 8.69861 10.9167 8.47639 10.9167C8.25417 10.9167 8.08287 10.8185 7.9625 10.6222ZM1.10139 15.4389C0.899537 15.4389 0.7125 15.3648 0.540278 15.2167C0.368055 15.0685 0.258333 14.8949 0.211111 14.6958C0.12963 14.2986 0.0740742 13.9227 0.0444445 13.5681C0.0148149 13.2134 0 12.8574 0 12.5C0 11.2019 0.206018 9.92731 0.618055 8.67639C1.03102 7.42639 1.63704 6.23287 2.43611 5.09583C2.61944 4.86157 2.83009 4.74444 3.06806 4.74444C3.30602 4.74444 3.49954 4.88194 3.64861 5.15694L9.00139 14.5569C9.12176 14.7523 9.12037 14.9481 8.99722 15.1444C8.87315 15.3407 8.70185 15.4389 8.48333 15.4389H1.10139ZM8.3125 24.2583C6.69583 23.6769 5.2375 22.781 3.9375 21.5708C2.63657 20.3597 1.66204 18.9796 1.01389 17.4306C0.898148 17.1648 0.90787 16.9398 1.04306 16.7556C1.17824 16.5713 1.39028 16.4792 1.67917 16.4792H12.6514C12.8699 16.4792 13.0352 16.5773 13.1472 16.7736C13.2593 16.969 13.2546 17.1648 13.1333 17.3611L9.4625 23.8597C9.33009 24.0718 9.16065 24.2106 8.95417 24.2764C8.74768 24.3421 8.53472 24.3361 8.3125 24.2583ZM12.5 25C12.2824 25 12.0514 24.9917 11.8069 24.975C11.5625 24.9583 11.3343 24.9352 11.1222 24.9056C10.8519 24.8593 10.663 24.7389 10.5556 24.5444C10.4491 24.3472 10.4676 24.1278 10.6111 23.8861L16.1 14.5528C16.2213 14.3583 16.3995 14.2611 16.6347 14.2611C16.8699 14.2611 17.0481 14.3583 17.1694 14.5528L20.7583 20.8444C20.8852 21.0454 20.9241 21.2606 20.875 21.4903C20.8259 21.7199 20.7102 21.9088 20.5278 22.0569C19.4278 22.9866 18.1838 23.7093 16.7958 24.225C15.4079 24.7407 13.9759 24.9991 12.5 25ZM21.375 19.8583L16.0069 10.3903C15.8866 10.194 15.8833 9.99815 15.9972 9.80278C16.1111 9.60741 16.2778 9.50926 16.4972 9.50833H23.9C24.1009 9.50833 24.288 9.58194 24.4611 9.72917C24.6333 9.87639 24.7426 10.0505 24.7889 10.2514C24.8537 10.631 24.9046 11.0065 24.9417 11.3778C24.9806 11.75 25 12.1241 25 12.5C25 13.8519 24.7981 15.1426 24.3944 16.3722C23.9917 17.6009 23.3815 18.7806 22.5639 19.9111C22.3972 20.1306 22.1935 20.2417 21.9528 20.2444C21.712 20.2472 21.5194 20.1185 21.375 19.8583Z" fill="#E95B43"/>
</svg>
