<svg width="50" height="50" viewBox="0 0 50 50" fill="none" xmlns="http://www.w3.org/2000/svg">
<rect width="11" height="50" fill="white"/>
<rect x="44" width="6" height="50" fill="white"/>
<mask id="path-3-inside-1_69_716" fill="white">
<path fill-rule="evenodd" clip-rule="evenodd" d="M47.24 0H2.76C1.235 0 0 1.235 0 2.76V47.24C0 48.765 1.235 50 2.76 50H26.705V30.6375H20.19V23.0925H26.705V17.525C26.705 11.065 30.65 7.55 36.4125 7.55C39.1725 7.55 41.5425 7.755 42.235 7.8475V14.5975H38.24C35.105 14.5975 34.5 16.0875 34.5 18.2725V23.09H41.9725L40.9975 30.635H34.4975V50H47.24C48.765 50 50 48.765 50 47.24V2.76C50 1.235 48.765 0 47.24 0Z"/>
</mask>
<path fill-rule="evenodd" clip-rule="evenodd" d="M47.24 0H2.76C1.235 0 0 1.235 0 2.76V47.24C0 48.765 1.235 50 2.76 50H26.705V30.6375H20.19V23.0925H26.705V17.525C26.705 11.065 30.65 7.55 36.4125 7.55C39.1725 7.55 41.5425 7.755 42.235 7.8475V14.5975H38.24C35.105 14.5975 34.5 16.0875 34.5 18.2725V23.09H41.9725L40.9975 30.635H34.4975V50H47.24C48.765 50 50 48.765 50 47.24V2.76C50 1.235 48.765 0 47.24 0Z" fill="white"/>
<path d="M26.705 50V80H56.705V50H26.705ZM26.705 30.6375H56.705V0.6375H26.705V30.6375ZM20.19 30.6375H-9.81V60.6375H20.19V30.6375ZM20.19 23.0925V-6.9075H-9.81V23.0925H20.19ZM26.705 23.0925V53.0925H56.705V23.0925H26.705ZM42.235 7.8475H72.235V-18.4117L46.2069 -21.8884L42.235 7.8475ZM42.235 14.5975V44.5975H72.235V14.5975H42.235ZM34.5 23.09H4.5V53.09H34.5V23.09ZM41.9725 23.09L71.7251 26.9348L76.0987 -6.91H41.9725V23.09ZM40.9975 30.635V60.635H67.3702L70.7501 34.4798L40.9975 30.635ZM34.4975 30.635V0.634999H4.4975V30.635H34.4975ZM34.4975 50H4.4975V80H34.4975V50ZM47.24 0V-30H2.76V0V30H47.24V0ZM2.76 0V-30C-15.3335 -30 -30 -15.3335 -30 2.76H0H30C30 17.8035 17.8035 30 2.76 30V0ZM0 2.76H-30V47.24H0H30V2.76H0ZM0 47.24H-30C-30 65.3335 -15.3335 80 2.76 80V50V20C17.8035 20 30 32.1965 30 47.24H0ZM2.76 50V80H26.705V50V20H2.76V50ZM26.705 50H56.705V30.6375H26.705H-3.295V50H26.705ZM26.705 30.6375V0.6375H20.19V30.6375V60.6375H26.705V30.6375ZM20.19 30.6375H50.19V23.0925H20.19H-9.81V30.6375H20.19ZM20.19 23.0925V53.0925H26.705V23.0925V-6.9075H20.19V23.0925ZM26.705 23.0925H56.705V17.525H26.705H-3.295V23.0925H26.705ZM26.705 17.525H56.705C56.705 20.4967 55.6554 26.3447 50.4836 31.4548C45.4058 36.4722 39.6141 37.55 36.4125 37.55V7.55V-22.45C27.4484 -22.45 16.8029 -19.6147 8.31199 -11.2248C-0.272864 -2.74215 -3.295 8.09326 -3.295 17.525H26.705ZM36.4125 7.55V37.55C37.0793 37.55 37.7405 37.5758 38.2624 37.6078C38.5158 37.6233 38.6899 37.6375 38.7661 37.6443C38.8036 37.6476 38.7935 37.647 38.7386 37.6412C38.7038 37.6375 38.5303 37.6191 38.2631 37.5834L42.235 7.8475L46.2069 -21.8884C44.0016 -22.183 40.2871 -22.45 36.4125 -22.45V7.55ZM42.235 7.8475H12.235V14.5975H42.235H72.235V7.8475H42.235ZM42.235 14.5975V-15.4025H38.24V14.5975V44.5975H42.235V14.5975ZM38.24 14.5975V-15.4025C32.6755 -15.4025 21.0027 -14.1165 12.2372 -3.6968C4.45118 5.55866 4.5 15.9082 4.5 18.2725H34.5H64.5C64.5 18.4518 64.8513 26.9638 58.1515 34.9281C50.4723 44.0565 40.6695 44.5975 38.24 44.5975V14.5975ZM34.5 18.2725H4.5V23.09H34.5H64.5V18.2725H34.5ZM34.5 23.09V53.09H41.9725V23.09V-6.91H34.5V23.09ZM41.9725 23.09L12.2199 19.2452L11.2449 26.7902L40.9975 30.635L70.7501 34.4798L71.7251 26.9348L41.9725 23.09ZM40.9975 30.635V0.634999H34.4975V30.635V60.635H40.9975V30.635ZM34.4975 30.635H4.4975V50H34.4975H64.4975V30.635H34.4975ZM34.4975 50V80H47.24V50V20H34.4975V50ZM47.24 50V80C65.3335 80 80 65.3335 80 47.24H50H20C20 32.1965 32.1965 20 47.24 20V50ZM50 47.24H80V2.76H50H20V47.24H50ZM50 2.76H80C80 -15.3335 65.3335 -30 47.24 -30V0V30C32.1965 30 20 17.8035 20 2.76H50Z" fill="white" mask="url(#path-3-inside-1_69_716)"/>
</svg>
