<svg width="30" height="22" viewBox="0 0 30 22" fill="none" xmlns="http://www.w3.org/2000/svg">
<path d="M3 2.93333C3 1.31542 4.34531 0 6 0H19.5C21.1547 0 22.5 1.31542 22.5 2.93333V4.4H24.8766C25.6734 4.4 26.4375 4.70708 27 5.25708L29.1234 7.33333C29.6859 7.88333 30 8.63042 30 9.40958V16.1333C30 17.7513 28.6547 19.0667 27 19.0667H26.8453C26.3578 20.7579 24.7641 22 22.875 22C20.9859 22 19.3969 20.7579 18.9047 19.0667H14.0953C13.6078 20.7579 12.0141 22 10.125 22C8.23594 22 6.64688 20.7579 6.15469 19.0667H6C4.34531 19.0667 3 17.7513 3 16.1333V13.9333H1.125C0.501562 13.9333 0 13.4429 0 12.8333C0 12.2238 0.501562 11.7333 1.125 11.7333H6.375C6.99844 11.7333 7.5 11.2429 7.5 10.6333C7.5 10.0238 6.99844 9.53333 6.375 9.53333H1.125C0.501562 9.53333 0 9.04292 0 8.43333C0 7.82375 0.501562 7.33333 1.125 7.33333H9.375C9.99844 7.33333 10.5 6.84292 10.5 6.23333C10.5 5.62375 9.99844 5.13333 9.375 5.13333H1.125C0.501562 5.13333 0 4.64292 0 4.03333C0 3.42375 0.501562 2.93333 1.125 2.93333H3ZM27 11.7333V9.40958L24.8766 7.33333H22.5V11.7333H27ZM12 17.9667C12 16.9538 11.1609 16.1333 10.125 16.1333C9.08906 16.1333 8.25 16.9538 8.25 17.9667C8.25 18.9796 9.08906 19.8 10.125 19.8C11.1609 19.8 12 18.9796 12 17.9667ZM22.875 19.8C23.9109 19.8 24.75 18.9796 24.75 17.9667C24.75 16.9538 23.9109 16.1333 22.875 16.1333C21.8391 16.1333 21 16.9538 21 17.9667C21 18.9796 21.8391 19.8 22.875 19.8Z" fill="black"/>
</svg>
