<svg width="49" height="49" viewBox="0 0 49 49" fill="none" xmlns="http://www.w3.org/2000/svg">
<g clip-path="url(#clip0_1_873)">
<path d="M17.0701 1.61178C12.1742 3.3102 7.95201 6.53385 5.02367 10.8092C2.09534 15.0846 0.615208 20.1864 0.800684 25.3652C0.986161 30.5439 2.82747 35.5267 6.05415 39.5817C9.28084 43.6366 13.7228 46.55 18.7276 47.8938C22.7851 48.9408 27.0362 48.9868 31.1154 48.0278C34.8108 47.1977 38.2273 45.4222 41.0303 42.8751C43.9476 40.1432 46.0652 36.6678 47.1553 32.8225C48.3402 28.6409 48.551 24.2434 47.7716 19.9676H24.9866V29.4193H38.1822C37.9184 30.9267 37.3533 32.3655 36.5206 33.6495C35.6878 34.9334 34.6046 36.0362 33.3358 36.8918C31.7244 37.9576 29.908 38.6748 28.0032 38.9972C26.0927 39.3525 24.1332 39.3525 22.2227 38.9972C20.2864 38.5969 18.4547 37.7977 16.8442 36.6506C14.2569 34.8192 12.3143 32.2174 11.2934 29.2164C10.2553 26.1592 10.2553 22.8449 11.2934 19.7877C12.0201 17.6448 13.2214 15.6937 14.8076 14.08C16.6229 12.1994 18.9211 10.8552 21.45 10.1947C23.979 9.5343 26.641 9.5832 29.144 10.3361C31.0992 10.9363 32.8873 11.985 34.3655 13.3986C35.8534 11.9184 37.3387 10.4343 38.8215 8.94647C39.5871 8.14639 40.4216 7.38459 41.1758 6.56537C38.9193 4.46555 36.2707 2.83164 33.3817 1.75725C28.1207 -0.153026 22.3643 -0.204363 17.0701 1.61178Z" fill="white"/>
<path d="M17.0697 1.61169C22.3635 -0.20569 28.1199 -0.155705 33.3813 1.75333C36.2709 2.83502 38.9183 4.4768 41.1716 6.58442C40.4059 7.40364 39.5982 8.16926 38.8173 8.96551C37.332 10.4483 35.8479 11.9259 34.3652 13.3985C32.8869 11.9849 31.0989 10.9362 29.1436 10.336C26.6414 9.58047 23.9795 9.52874 21.4499 10.1865C18.9203 10.8442 16.6207 12.186 14.8034 14.0646C13.2172 15.6783 12.0159 17.6294 11.2892 19.7723L3.35352 13.6282C6.19402 7.99532 11.1122 3.68662 17.0697 1.61169Z" fill="#E33629"/>
<path d="M1.24811 19.7146C1.67465 17.6007 2.38278 15.5536 3.35358 13.6279L11.2893 19.7874C10.2512 22.8445 10.2512 26.1589 11.2893 29.2161C8.64533 31.2577 6.00009 33.3096 3.35358 35.3717C0.9233 30.5341 0.182106 25.0224 1.24811 19.7146Z" fill="#F8BD00"/>
<path d="M24.9861 19.9639H47.7711C48.5505 24.2396 48.3396 28.6371 47.1547 32.8187C46.0646 36.664 43.9471 40.1394 41.0297 42.8714C38.4687 40.8731 35.8962 38.8901 33.3352 36.8918C34.6049 36.0354 35.6886 34.9314 36.5214 33.6461C37.3542 32.3608 37.9189 30.9205 38.1816 29.4117H24.9861C24.9822 26.265 24.9861 23.1144 24.9861 19.9639Z" fill="#587DBD"/>
<path d="M3.34961 35.3719C5.99612 33.3303 8.64135 31.2784 11.2853 29.2163C12.3082 32.2183 14.2537 34.8203 16.8438 36.6505C18.4592 37.7923 20.2949 38.585 22.2338 38.978C24.1442 39.3333 26.1038 39.3333 28.0142 38.978C29.9191 38.6556 31.7355 37.9384 33.3468 36.8726C35.9078 38.8708 38.4803 40.8538 41.0413 42.8521C38.2387 45.4006 34.8222 47.1774 31.1265 48.0086C27.0473 48.9675 22.7962 48.9216 18.7387 47.8746C15.5296 47.0177 12.532 45.5073 9.93398 43.4378C7.18409 41.2546 4.93811 38.5032 3.34961 35.3719Z" fill="#319F43"/>
</g>
<defs>
<clipPath id="clip0_1_873">
<rect width="49" height="49" fill="white"/>
</clipPath>
</defs>
</svg>
