<svg width="13" height="13" viewBox="0 0 13 13" fill="none" xmlns="http://www.w3.org/2000/svg">
<path d="M0 11.5143V4.82857C0 4.59333 0.0576873 4.37048 0.173062 4.16C0.288437 3.94952 0.447417 3.77619 0.65 3.64L5.525 0.297143C5.80937 0.0990477 6.13437 0 6.5 0C6.86562 0 7.19062 0.0990477 7.475 0.297143L12.35 3.64C12.5531 3.77619 12.7124 3.94952 12.8277 4.16C12.9431 4.37048 13.0005 4.59333 13 4.82857V11.5143C13 11.9229 12.8407 12.2727 12.5222 12.5639C12.2037 12.8551 11.8213 13.0005 11.375 13H8.9375C8.70729 13 8.51446 12.9287 8.359 12.7861C8.20354 12.6434 8.12554 12.4671 8.125 12.2571V8.54286C8.125 8.33238 8.047 8.15607 7.891 8.01394C7.735 7.87181 7.54216 7.80049 7.3125 7.8H5.6875C5.45729 7.8 5.26446 7.87131 5.109 8.01394C4.95354 8.15657 4.87554 8.33287 4.875 8.54286V12.2571C4.875 12.4676 4.797 12.6442 4.641 12.7868C4.485 12.9294 4.29217 13.0005 4.0625 13H1.625C1.17812 13 0.795708 12.8546 0.47775 12.5639C0.159791 12.2732 0.000541667 11.9233 0 11.5143Z" fill="#8F8F8F"/>
</svg>
