<svg width="50" height="50" viewBox="0 0 50 50" fill="none" xmlns="http://www.w3.org/2000/svg">
<mask id="path-1-inside-1_69_1306" fill="white">
<path d="M46.3638 46.8184H4.54541V4.5459H46.3638V46.8184ZM25.0005 13.6367C21.9867 13.6367 19.0955 14.8337 16.9644 16.9648C14.8333 19.0959 13.6362 21.9872 13.6362 25.001C13.6364 28.0146 14.8334 30.9052 16.9644 33.0361C19.0955 35.1672 21.9867 36.3643 25.0005 36.3643C28.0141 36.3641 30.9047 35.1671 33.0356 33.0361C35.1666 30.9052 36.3636 28.0146 36.3638 25.001C36.3638 21.9872 35.1667 19.0959 33.0356 16.9648C30.9047 14.8339 28.0141 13.6368 25.0005 13.6367ZM25.0005 18.1826C26.8086 18.1827 28.5423 18.9011 29.8208 20.1797C31.0995 21.4583 31.8179 23.1927 31.8179 25.001C31.8177 26.8091 31.0993 28.5427 29.8208 29.8213C28.5423 31.0998 26.8086 31.8182 25.0005 31.8184C23.1922 31.8184 21.4579 31.0999 20.1792 29.8213C18.9007 28.5427 18.1823 26.8091 18.1821 25.001C18.1821 23.1927 18.9005 21.4583 20.1792 20.1797C21.4579 18.901 23.1922 18.1826 25.0005 18.1826ZM38.6362 9.0918C38.0337 9.09183 37.4559 9.33087 37.0298 9.75684C36.6036 10.1831 36.3638 10.7615 36.3638 11.3643C36.3638 11.967 36.6036 12.5445 37.0298 12.9707C37.456 13.3969 38.0335 13.6367 38.6362 13.6367C39.239 13.6367 39.8174 13.3969 40.2437 12.9707C40.6696 12.5445 40.9087 11.9668 40.9087 11.3643C40.9087 10.7615 40.6699 10.1831 40.2437 9.75684C39.8174 9.33062 39.239 9.0918 38.6362 9.0918Z"/>
</mask>
<path d="M46.3638 46.8184H4.54541V4.5459H46.3638V46.8184ZM25.0005 13.6367C21.9867 13.6367 19.0955 14.8337 16.9644 16.9648C14.8333 19.0959 13.6362 21.9872 13.6362 25.001C13.6364 28.0146 14.8334 30.9052 16.9644 33.0361C19.0955 35.1672 21.9867 36.3643 25.0005 36.3643C28.0141 36.3641 30.9047 35.1671 33.0356 33.0361C35.1666 30.9052 36.3636 28.0146 36.3638 25.001C36.3638 21.9872 35.1667 19.0959 33.0356 16.9648C30.9047 14.8339 28.0141 13.6368 25.0005 13.6367ZM25.0005 18.1826C26.8086 18.1827 28.5423 18.9011 29.8208 20.1797C31.0995 21.4583 31.8179 23.1927 31.8179 25.001C31.8177 26.8091 31.0993 28.5427 29.8208 29.8213C28.5423 31.0998 26.8086 31.8182 25.0005 31.8184C23.1922 31.8184 21.4579 31.0999 20.1792 29.8213C18.9007 28.5427 18.1823 26.8091 18.1821 25.001C18.1821 23.1927 18.9005 21.4583 20.1792 20.1797C21.4579 18.901 23.1922 18.1826 25.0005 18.1826ZM38.6362 9.0918C38.0337 9.09183 37.4559 9.33087 37.0298 9.75684C36.6036 10.1831 36.3638 10.7615 36.3638 11.3643C36.3638 11.967 36.6036 12.5445 37.0298 12.9707C37.456 13.3969 38.0335 13.6367 38.6362 13.6367C39.239 13.6367 39.8174 13.3969 40.2437 12.9707C40.6696 12.5445 40.9087 11.9668 40.9087 11.3643C40.9087 10.7615 40.6699 10.1831 40.2437 9.75684C39.8174 9.33062 39.239 9.0918 38.6362 9.0918Z" fill="white"/>
<path d="M46.3638 46.8184V76.8184H76.3638V46.8184H46.3638ZM4.54541 46.8184H-25.4546V76.8184H4.54541V46.8184ZM4.54541 4.5459V-25.4541H-25.4546V4.5459H4.54541ZM46.3638 4.5459H76.3638V-25.4541H46.3638V4.5459ZM25.0005 13.6367L25.0018 -16.3633H25.0005V13.6367ZM13.6362 25.001H-16.3638V25.0023L13.6362 25.001ZM16.9644 33.0361L-4.24885 54.2493H-4.24885L16.9644 33.0361ZM25.0005 36.3643V66.3643H25.0018L25.0005 36.3643ZM36.3638 25.001L66.3638 25.0023V25.001H36.3638ZM33.0356 16.9648L54.2488 -4.24836V-4.24836L33.0356 16.9648ZM25.0005 18.1826L25.0026 -11.8174H25.0005V18.1826ZM29.8208 20.1797L51.034 -1.03352V-1.03352L29.8208 20.1797ZM31.8179 25.001L61.8179 25.0031V25.001H31.8179ZM25.0005 31.8184V61.8184H25.0026L25.0005 31.8184ZM20.1792 29.8213L-1.03401 51.0345H-1.034L20.1792 29.8213ZM18.1821 25.001H-11.8179V25.0031L18.1821 25.001ZM38.6362 9.0918V-20.9082H38.6345L38.6362 9.0918ZM37.0298 9.75684L15.8213 -11.4611L15.8166 -11.4564L37.0298 9.75684ZM36.3638 11.3643H6.36377V11.366L36.3638 11.3643ZM37.0298 12.9707L15.8166 34.1839L15.8166 34.1839L37.0298 12.9707ZM38.6362 13.6367L38.6345 43.6367H38.6362V13.6367ZM40.2437 12.9707L61.4569 34.1839L61.4615 34.1792L40.2437 12.9707ZM40.9087 11.3643L70.9087 11.366V11.3643H40.9087ZM40.2437 9.75684L61.4569 -11.4564L61.4568 -11.4564L40.2437 9.75684ZM46.3638 46.8184V16.8184H4.54541V46.8184V76.8184H46.3638V46.8184ZM4.54541 46.8184H34.5454V4.5459H4.54541H-25.4546V46.8184H4.54541ZM4.54541 4.5459V34.5459H46.3638V4.5459V-25.4541H4.54541V4.5459ZM46.3638 4.5459H16.3638V46.8184H46.3638H76.3638V4.5459H46.3638ZM25.0005 13.6367V-16.3633C14.0339 -16.3633 3.51097 -12.0082 -4.24885 -4.24836L16.9644 16.9648L38.1776 38.178C34.6799 41.6757 29.9394 43.6367 25.0005 43.6367V13.6367ZM16.9644 16.9648L-4.24885 -4.24836C-12.0087 3.51146 -16.3638 14.0344 -16.3638 25.001H13.6362H43.6362C43.6362 29.9399 41.6752 34.6804 38.1776 38.178L16.9644 16.9648ZM13.6362 25.001L-16.3638 25.0023C-16.3633 35.9696 -12.0073 46.4909 -4.24885 54.2493L16.9644 33.0361L38.1776 11.8229C41.674 15.3194 43.636 20.0597 43.6362 24.9997L13.6362 25.001ZM16.9644 33.0361L-4.24885 54.2493C3.51097 62.0092 14.0339 66.3643 25.0005 66.3643V36.3643V6.36426C29.9394 6.36426 34.6799 8.3253 38.1776 11.8229L16.9644 33.0361ZM25.0005 36.3643L25.0018 66.3643C35.9691 66.3638 46.4904 62.0078 54.2488 54.2493L33.0356 33.0361L11.8224 11.8229C15.3189 8.32646 20.0592 6.36447 24.9992 6.36426L25.0005 36.3643ZM33.0356 33.0361L54.2488 54.2493C62.0073 46.4909 66.3633 35.9696 66.3638 25.0023L36.3638 25.001L6.36377 24.9997C6.36398 20.0597 8.32597 15.3194 11.8224 11.8229L33.0356 33.0361ZM36.3638 25.001H66.3638C66.3638 14.0344 62.0087 3.51146 54.2488 -4.24836L33.0356 16.9648L11.8224 38.178C8.32481 34.6804 6.36377 29.9399 6.36377 25.001H36.3638ZM33.0356 16.9648L54.2488 -4.24836C46.4904 -12.0068 35.9691 -16.3628 25.0018 -16.3633L25.0005 13.6367L24.9992 43.6367C20.0592 43.6365 15.3189 41.6745 11.8224 38.178L33.0356 16.9648ZM25.0005 18.1826L24.9983 48.1826C18.8482 48.1822 12.9528 45.7381 8.6076 41.3929L29.8208 20.1797L51.034 -1.03352C44.1317 -7.93581 34.7691 -11.8167 25.0026 -11.8174L25.0005 18.1826ZM29.8208 20.1797L8.6076 41.3929C4.26038 37.0457 1.81787 31.1495 1.81787 25.001H31.8179H61.8179C61.8179 15.2359 57.9385 5.87102 51.034 -1.03352L29.8208 20.1797ZM31.8179 25.001L1.81787 24.9988C1.81831 18.8486 4.26238 12.9533 8.6076 8.60809L29.8208 29.8213L51.034 51.0345C57.9363 44.1322 61.8172 34.7695 61.8179 25.0031L31.8179 25.001ZM29.8208 29.8213L8.6076 8.60809C12.9528 4.26287 18.8482 1.8188 24.9983 1.81836L25.0005 31.8184L25.0026 61.8184C34.7691 61.8177 44.1317 57.9368 51.034 51.0345L29.8208 29.8213ZM25.0005 31.8184V1.81836C31.149 1.81836 37.0452 4.26087 41.3924 8.60809L20.1792 29.8213L-1.034 51.0345C5.87053 57.939 15.2354 61.8184 25.0005 61.8184V31.8184ZM20.1792 29.8213L41.3924 8.60809C45.7376 12.9533 48.1817 18.8486 48.1821 24.9988L18.1821 25.001L-11.8179 25.0031C-11.8172 34.7696 -7.9363 44.1322 -1.03401 51.0345L20.1792 29.8213ZM18.1821 25.001H48.1821C48.1821 31.1495 45.7396 37.0457 41.3924 41.3929L20.1792 20.1797L-1.034 -1.03352C-7.93854 5.87102 -11.8179 15.2359 -11.8179 25.001H18.1821ZM20.1792 20.1797L41.3924 41.3929C37.0452 45.7401 31.149 48.1826 25.0005 48.1826V18.1826V-11.8174C15.2354 -11.8174 5.87053 -7.93805 -1.034 -1.03352L20.1792 20.1797ZM38.6362 9.0918L38.6345 -20.9082C30.0857 -20.9077 21.8779 -17.515 15.8213 -11.4611L37.0298 9.75684L58.2383 30.9747C53.034 36.1767 45.9817 39.0914 38.638 39.0918L38.6362 9.0918ZM37.0298 9.75684L15.8166 -11.4564C9.76905 -5.40883 6.36377 2.79825 6.36377 11.3643H36.3638H66.3638C66.3638 18.7247 63.4381 25.7749 58.243 30.97L37.0298 9.75684ZM36.3638 11.3643L6.36377 11.366C6.36427 19.9432 9.77786 28.1452 15.8166 34.1839L37.0298 12.9707L58.243 -8.2425C63.4293 -3.05615 66.3633 3.99079 66.3638 11.3625L36.3638 11.3643ZM37.0298 12.9707L15.8166 34.1839C21.8553 40.2226 30.0573 43.6362 38.6345 43.6367L38.6362 13.6367L38.638 -16.3633C46.0097 -16.3629 53.0566 -13.4288 58.243 -8.24252L37.0298 12.9707ZM38.6362 13.6367V43.6367C47.2022 43.6367 55.4093 40.2314 61.4569 34.1839L40.2437 12.9707L19.0304 -8.2425C24.2255 -13.4376 31.2757 -16.3633 38.6362 -16.3633V13.6367ZM40.2437 12.9707L61.4615 34.1792C67.5155 28.1226 70.9082 19.9148 70.9087 11.366L40.9087 11.3643L10.9087 11.3625C10.9091 4.01884 13.8237 -3.03348 19.0258 -8.23783L40.2437 12.9707ZM40.9087 11.3643H70.9087C70.9087 2.83129 67.5277 -5.38549 61.4569 -11.4564L40.2437 9.75684L19.0304 30.97C13.812 25.7516 10.9087 18.6917 10.9087 11.3643H40.9087ZM40.2437 9.75684L61.4568 -11.4564C55.386 -17.5272 47.1692 -20.9082 38.6362 -20.9082V9.0918V39.0918C31.3088 39.0918 24.2489 36.1885 19.0305 30.9701L40.2437 9.75684Z" fill="white" mask="url(#path-1-inside-1_69_1306)"/>
<mask id="path-3-inside-2_69_1306" fill="white">
<path fill-rule="evenodd" clip-rule="evenodd" d="M9.09091 0C6.67985 0 4.36754 0.95779 2.66267 2.66267C0.95779 4.36754 0 6.67985 0 9.09091V40.9091C0 43.3201 0.95779 45.6325 2.66267 47.3373C4.36754 49.0422 6.67985 50 9.09091 50H40.9091C43.3201 50 45.6325 49.0422 47.3373 47.3373C49.0422 45.6325 50 43.3201 50 40.9091V9.09091C50 6.67985 49.0422 4.36754 47.3373 2.66267C45.6325 0.95779 43.3201 0 40.9091 0H9.09091ZM40.9091 4.54545H9.09091C7.88538 4.54545 6.72923 5.02435 5.87679 5.87679C5.02435 6.72923 4.54545 7.88538 4.54545 9.09091V40.9091C4.54545 42.1146 5.02435 43.2708 5.87679 44.1232C6.72923 44.9757 7.88538 45.4545 9.09091 45.4545H40.9091C42.1146 45.4545 43.2708 44.9757 44.1232 44.1232C44.9757 43.2708 45.4545 42.1146 45.4545 40.9091V9.09091C45.4545 7.88538 44.9757 6.72923 44.1232 5.87679C43.2708 5.02435 42.1146 4.54545 40.9091 4.54545Z"/>
</mask>
<path fill-rule="evenodd" clip-rule="evenodd" d="M9.09091 0C6.67985 0 4.36754 0.95779 2.66267 2.66267C0.95779 4.36754 0 6.67985 0 9.09091V40.9091C0 43.3201 0.95779 45.6325 2.66267 47.3373C4.36754 49.0422 6.67985 50 9.09091 50H40.9091C43.3201 50 45.6325 49.0422 47.3373 47.3373C49.0422 45.6325 50 43.3201 50 40.9091V9.09091C50 6.67985 49.0422 4.36754 47.3373 2.66267C45.6325 0.95779 43.3201 0 40.9091 0H9.09091ZM40.9091 4.54545H9.09091C7.88538 4.54545 6.72923 5.02435 5.87679 5.87679C5.02435 6.72923 4.54545 7.88538 4.54545 9.09091V40.9091C4.54545 42.1146 5.02435 43.2708 5.87679 44.1232C6.72923 44.9757 7.88538 45.4545 9.09091 45.4545H40.9091C42.1146 45.4545 43.2708 44.9757 44.1232 44.1232C44.9757 43.2708 45.4545 42.1146 45.4545 40.9091V9.09091C45.4545 7.88538 44.9757 6.72923 44.1232 5.87679C43.2708 5.02435 42.1146 4.54545 40.9091 4.54545Z" fill="white"/>
<path d="M0 9.09091H-30H0ZM0 40.9091H-30H0ZM9.09091 4.54545V-25.4545V4.54545ZM4.54545 9.09091H-25.4545H4.54545ZM4.54545 40.9091H-25.4545H4.54545ZM9.09091 0V-30C-1.27665 -30 -11.2196 -25.8815 -18.5505 -18.5505L2.66267 2.66267L23.8759 23.8759C19.9547 27.7971 14.6363 30 9.09091 30V0ZM2.66267 2.66267L-18.5505 -18.5505C-25.8815 -11.2196 -30 -1.27665 -30 9.09091H0H30C30 14.6363 27.7971 19.9547 23.8759 23.8759L2.66267 2.66267ZM0 9.09091H-30V40.9091H0H30V9.09091H0ZM0 40.9091H-30C-30 51.2767 -25.8815 61.2196 -18.5505 68.5505L2.66267 47.3373L23.8759 26.1241C27.7971 30.0453 30 35.3636 30 40.9091H0ZM2.66267 47.3373L-18.5505 68.5505C-11.2196 75.8815 -1.27666 80 9.09091 80V50V20C14.6364 20 19.9547 22.2029 23.8759 26.1241L2.66267 47.3373ZM9.09091 50V80H40.9091V50V20H9.09091V50ZM40.9091 50V80C51.2767 80 61.2196 75.8815 68.5505 68.5505L47.3373 47.3373L26.1241 26.1241C30.0453 22.2029 35.3636 20 40.9091 20V50ZM47.3373 47.3373L68.5505 68.5505C75.8815 61.2196 80 51.2767 80 40.9091H50H20C20 35.3636 22.2029 30.0453 26.1241 26.1241L47.3373 47.3373ZM50 40.9091H80V9.09091H50H20V40.9091H50ZM50 9.09091H80C80 -1.27666 75.8815 -11.2196 68.5505 -18.5505L47.3373 2.66267L26.1241 23.8759C22.2029 19.9547 20 14.6364 20 9.09091H50ZM47.3373 2.66267L68.5505 -18.5505C61.2196 -25.8815 51.2767 -30 40.9091 -30V0V30C35.3636 30 30.0453 27.7971 26.1241 23.8759L47.3373 2.66267ZM40.9091 0V-30H9.09091V0V30H40.9091V0ZM40.9091 4.54545V-25.4545H9.09091V4.54545V34.5455H40.9091V4.54545ZM9.09091 4.54545V-25.4545C-0.0711103 -25.4545 -8.85788 -21.8149 -15.3364 -15.3364L5.87679 5.87679L27.09 27.09C22.3163 31.8636 15.8419 34.5455 9.09091 34.5455V4.54545ZM5.87679 5.87679L-15.3364 -15.3364C-21.8149 -8.85788 -25.4545 -0.0711103 -25.4545 9.09091H4.54545H34.5455C34.5455 15.8419 31.8636 22.3163 27.09 27.09L5.87679 5.87679ZM4.54545 9.09091H-25.4545V40.9091H4.54545H34.5455V9.09091H4.54545ZM4.54545 40.9091H-25.4545C-25.4545 50.0711 -21.8149 58.8579 -15.3364 65.3364L5.87679 44.1232L27.09 22.91C31.8636 27.6837 34.5455 34.1581 34.5455 40.9091H4.54545ZM5.87679 44.1232L-15.3364 65.3364C-8.8579 71.8149 -0.0711286 75.4545 9.09091 75.4545V45.4545V15.4545C15.8419 15.4545 22.3163 18.1364 27.09 22.91L5.87679 44.1232ZM9.09091 45.4545V75.4545H40.9091V45.4545V15.4545H9.09091V45.4545ZM40.9091 45.4545V75.4545C50.0711 75.4545 58.8579 71.8149 65.3364 65.3364L44.1232 44.1232L22.91 22.91C27.6836 18.1364 34.1581 15.4545 40.9091 15.4545V45.4545ZM44.1232 44.1232L65.3364 65.3364C71.8149 58.8579 75.4545 50.0711 75.4545 40.9091H45.4545H15.4545C15.4545 34.1581 18.1364 27.6836 22.91 22.91L44.1232 44.1232ZM45.4545 40.9091H75.4545V9.09091H45.4545H15.4545V40.9091H45.4545ZM45.4545 9.09091H75.4545C75.4545 -0.0711286 71.8149 -8.8579 65.3364 -15.3364L44.1232 5.87679L22.91 27.09C18.1364 22.3163 15.4545 15.8419 15.4545 9.09091H45.4545ZM44.1232 5.87679L65.3364 -15.3364C58.8579 -21.8149 50.0711 -25.4545 40.9091 -25.4545V4.54545V34.5455C34.1581 34.5455 27.6837 31.8636 22.91 27.09L44.1232 5.87679Z" fill="white" mask="url(#path-3-inside-2_69_1306)"/>
<rect width="11" height="50" fill="white"/>
<rect x="43" width="7" height="50" fill="white"/>
</svg>
