<svg width="15" height="14" viewBox="0 0 15 14" fill="none" xmlns="http://www.w3.org/2000/svg">
<path d="M13.5531 10.5C13.9617 10.5 14.3062 10.64 14.5865 10.92C14.8668 11.2 15.0046 11.5267 14.9999 11.9L9.27675 14L4.28772 12.6V6.3H5.67752L10.859 8.183C11.2296 8.32767 11.4149 8.589 11.4149 8.967C11.4149 9.18633 11.3341 9.37767 11.1726 9.541C11.011 9.70433 10.8067 9.79067 10.5596 9.8H8.56403L7.31677 9.331L7.08157 9.989L8.56403 10.5H13.5531ZM10.7022 0.861C11.2058 0.287 11.8473 0 12.6265 0C13.2727 0 13.8191 0.233333 14.2658 0.7C14.7124 1.16667 14.95 1.70333 14.9785 2.31C14.9785 2.79067 14.7409 3.36467 14.2658 4.032C13.7906 4.69933 13.3226 5.257 12.8617 5.705C12.4008 6.153 11.681 6.818 10.7022 7.7C9.71388 6.818 8.98691 6.153 8.52127 5.705C8.05562 5.257 7.5876 4.69933 7.11721 4.032C6.64682 3.36467 6.41637 2.79067 6.42587 2.31C6.42587 1.67533 6.65632 1.13867 7.11721 0.7C7.5781 0.261333 8.13402 0.028 8.78497 0C9.54521 0 10.1843 0.287 10.7022 0.861ZM0 6.3H2.86228V14H0V6.3Z" fill="black"/>
</svg>
