<svg preserveAspectRatio="none" width="100%" height="100%" overflow="visible" style="display: block;" viewBox="0 0 80 80" fill="none" xmlns="http://www.w3.org/2000/svg">
<path id="Vector" d="M65.621 80H67.1C68.3391 79.96 69.4983 79.3203 70.2177 78.2807L79.2913 65.2064C79.8909 64.3267 80.1308 63.2472 79.9309 62.1677C79.8329 61.6415 79.6303 61.1403 79.335 60.6938C79.0398 60.2474 78.6579 59.8648 78.2121 59.5688L58.586 46.4944C56.9471 45.4149 54.7487 45.6548 53.4296 47.0941L45.9149 55.2107C42.877 53.4114 37.8006 50.1728 33.8034 46.1745C29.8063 42.1763 26.5686 37.0984 24.7698 34.0997L32.8841 26.583C34.3231 25.2635 34.6029 23.0645 33.4837 21.4252L20.4129 1.79362C19.8133 0.913994 18.894 0.274269 17.8547 0.0743544C16.7755 -0.12556 15.6962 0.0743548 14.8168 0.71408L1.74607 9.7502C0.706805 10.4699 0.067256 11.6294 0.0272842 12.8689C-0.0926312 15.7076 -0.612264 41.0168 19.1738 60.7683C37.0012 78.6006 59.3055 79.96 65.621 79.96V80Z" fill="var(--fill-0, white)"/>
</svg>
