<svg width="20" height="22" viewBox="0 0 20 22" fill="none" xmlns="http://www.w3.org/2000/svg">
<path d="M16.6667 22C15.7407 22 14.9537 21.6792 14.3056 21.0375C13.6574 20.3958 13.3333 19.6167 13.3333 18.7C13.3333 18.59 13.3611 18.3333 13.4167 17.93L5.61111 13.42C5.31482 13.695 4.97222 13.9106 4.58333 14.0668C4.19444 14.223 3.77778 14.3007 3.33333 14.3C2.40741 14.3 1.62037 13.9792 0.972222 13.3375C0.324074 12.6958 0 11.9167 0 11C0 10.0833 0.324074 9.30417 0.972222 8.6625C1.62037 8.02083 2.40741 7.7 3.33333 7.7C3.77778 7.7 4.19444 7.7781 4.58333 7.9343C4.97222 8.0905 5.31482 8.30573 5.61111 8.58L13.4167 4.07C13.3796 3.94167 13.3567 3.8181 13.3478 3.6993C13.3389 3.5805 13.3341 3.4474 13.3333 3.3C13.3333 2.38333 13.6574 1.60417 14.3056 0.9625C14.9537 0.320833 15.7407 0 16.6667 0C17.5926 0 18.3796 0.320833 19.0278 0.9625C19.6759 1.60417 20 2.38333 20 3.3C20 4.21667 19.6759 4.99583 19.0278 5.6375C18.3796 6.27917 17.5926 6.6 16.6667 6.6C16.2222 6.6 15.8056 6.5219 15.4167 6.3657C15.0278 6.2095 14.6852 5.99427 14.3889 5.72L6.58333 10.23C6.62037 10.3583 6.6437 10.4823 6.65333 10.6018C6.66296 10.7213 6.66741 10.8541 6.66667 11C6.66593 11.1459 6.66148 11.279 6.65333 11.3993C6.64519 11.5196 6.62185 11.6431 6.58333 11.77L14.3889 16.28C14.6852 16.005 15.0278 15.7898 15.4167 15.6343C15.8056 15.4788 16.2222 15.4007 16.6667 15.4C17.5926 15.4 18.3796 15.7208 19.0278 16.3625C19.6759 17.0042 20 17.7833 20 18.7C20 19.6167 19.6759 20.3958 19.0278 21.0375C18.3796 21.6792 17.5926 22 16.6667 22Z" fill="#2E54FF"/>
</svg>
