<svg preserveAspectRatio="none" width="100%" height="100%" overflow="visible" style="display: block;" viewBox="0 0 20.579 19.7677" fill="none" xmlns="http://www.w3.org/2000/svg">
<path id="Star 1" d="M8.5206 1.06672C9.27101 -0.355572 11.308 -0.355574 12.0584 1.06672L13.804 4.37531C14.0934 4.9238 14.6209 5.30702 15.2319 5.41275L18.918 6.05054C20.5026 6.32471 21.1321 8.26198 20.0113 9.41517L17.404 12.0978C16.9718 12.5425 16.7703 13.1626 16.8586 13.7764L17.3911 17.4792C17.62 19.0709 15.9721 20.2682 14.529 19.5586L11.172 17.908C10.6155 17.6343 9.96351 17.6343 9.407 17.908L6.05001 19.5586C4.60691 20.2682 2.95897 19.0709 3.18788 17.4792L3.72037 13.7764C3.80865 13.1626 3.60718 12.5425 3.17496 12.0978L0.567731 9.41517C-0.553061 8.26198 0.0763968 6.32471 1.66097 6.05054L5.34706 5.41275C5.95813 5.30702 6.48558 4.9238 6.77497 4.37531L8.5206 1.06672Z" fill="var(--fill-0, white)"/>
</svg>
