<svg width="19" height="17" viewBox="0 0 19 17" fill="none" xmlns="http://www.w3.org/2000/svg">
<path d="M4.98209 16.7041C4.57867 16.7041 4.2243 16.5785 3.91899 16.3274C3.61299 16.0756 3.42362 15.7473 3.3509 15.3425L1.62708 5.85275C1.177 5.8802 0.793471 5.74744 0.476495 5.45447C0.159518 5.16151 0.000686097 4.80131 0 4.37387C0 3.96564 0.146825 3.61608 0.440474 3.32517C0.733438 3.03495 1.08609 2.88984 1.49844 2.88984C1.91009 2.88984 2.26138 3.03495 2.55228 3.32517C2.84319 3.61608 2.98864 3.96598 2.98864 4.3749C2.98864 4.58073 2.9509 4.77181 2.87543 4.94813C2.79996 5.12446 2.69362 5.2754 2.5564 5.40096C2.86857 5.56493 3.18349 5.69975 3.50115 5.80541C3.8195 5.91176 4.15535 5.96493 4.50869 5.96493C5.35602 5.96493 6.12753 5.72342 6.82324 5.24041C7.51962 4.75808 8.08085 4.14471 8.50692 3.4003L8.83316 2.8106C8.58616 2.68779 8.38822 2.50837 8.23934 2.27235C8.09046 2.03634 8.01602 1.77562 8.01602 1.4902C8.01602 1.07992 8.16113 0.728978 8.45134 0.437387C8.74225 0.145795 9.09182 0 9.50004 0C9.90827 0 10.2575 0.145795 10.5477 0.437387C10.8379 0.728978 10.9834 1.07957 10.9841 1.48917C10.9841 1.77528 10.9096 2.03634 10.7607 2.27235C10.6119 2.50837 10.4139 2.68779 10.1669 2.8106L10.4942 3.4003C10.9196 4.14471 11.4805 4.75843 12.1769 5.24144C12.8732 5.72445 13.6448 5.96596 14.4914 5.96596C14.8447 5.96596 15.1806 5.91381 15.4989 5.80953C15.8173 5.70524 16.1319 5.57145 16.4427 5.40816C16.3054 5.2826 16.1991 5.12926 16.1236 4.94813C16.0488 4.76769 16.0114 4.57627 16.0114 4.37387C16.0114 3.96564 16.1569 3.61642 16.4478 3.3262C16.7387 3.03598 17.09 2.89053 17.5017 2.88984C17.9133 2.88916 18.266 3.03461 18.5596 3.3262C18.8533 3.61779 19.0001 3.96701 19.0001 4.37387C19.0001 4.80131 18.8413 5.16151 18.5236 5.45447C18.2059 5.74744 17.8289 5.8802 17.3926 5.85275L15.6492 15.3425C15.5765 15.7343 15.3874 16.0591 15.0821 16.3171C14.7768 16.5751 14.4221 16.7041 14.018 16.7041H4.98209Z" fill="#FF593D"/>
</svg>
