<svg width="19" height="19" viewBox="0 0 19 19" fill="none" xmlns="http://www.w3.org/2000/svg">
<path d="M18.5 18.5L14.157 14.157M14.157 14.157C14.8999 13.4141 15.4892 12.5322 15.8912 11.5616C16.2933 10.591 16.5002 9.55069 16.5002 8.5001C16.5002 7.44951 16.2933 6.40921 15.8912 5.43859C15.4892 4.46797 14.8999 3.58605 14.157 2.84317C13.4141 2.10029 12.5322 1.51101 11.5616 1.10897C10.591 0.706922 9.55069 0.499994 8.5001 0.499994C7.44951 0.499994 6.40921 0.706922 5.43859 1.10897C4.46797 1.51101 3.58605 2.10029 2.84317 2.84317C1.34286 4.34348 0.499994 6.37834 0.499994 8.5001C0.499994 10.6219 1.34286 12.6567 2.84317 14.157C4.34348 15.6573 6.37834 16.5002 8.5001 16.5002C10.6219 16.5002 12.6567 15.6573 14.157 14.157Z" stroke="#B2B2B2" stroke-linecap="round" stroke-linejoin="round"/>
</svg>
