<svg width="40" height="40" viewBox="0 0 40 40" fill="none" xmlns="http://www.w3.org/2000/svg">
<path fill-rule="evenodd" clip-rule="evenodd" d="M19.9982 2.7907C18.7752 2.7907 17.6023 3.23173 16.7375 4.01676C15.8727 4.8018 15.3869 5.86654 15.3869 6.97674V7.46047C16.5285 7.44186 17.7807 7.44186 19.1579 7.44186H20.8405C22.2136 7.44186 23.4679 7.44186 24.6115 7.46047V6.97674C24.6115 6.42687 24.4922 5.88238 24.2603 5.37438C24.0284 4.86639 23.6886 4.40484 23.2602 4.0161C22.8317 3.62737 22.3232 3.31907 21.7635 3.10881C21.2038 2.89855 20.6039 2.79045 19.9982 2.7907ZM27.6836 7.58698V6.97674C27.6836 5.1264 26.8739 3.35183 25.4326 2.04344C23.9913 0.735048 22.0365 0 19.9982 0C17.9599 0 16.0051 0.735048 14.5638 2.04344C13.1225 3.35183 12.3127 5.1264 12.3127 6.97674V7.58698C12.0204 7.6093 11.7375 7.63597 11.4643 7.66698C9.39432 7.89953 7.68918 8.38698 6.23816 9.47907C4.78715 10.5712 3.94688 12.0037 3.31565 13.8084C2.70081 15.5572 2.23764 17.8028 1.65559 20.6288L1.61255 20.8335C0.788675 24.8205 0.141048 27.9628 0.0201306 30.4391C-0.102836 32.9786 0.315251 35.0809 1.89333 36.8056C3.47141 38.5321 5.67047 39.2912 8.44133 39.6502C11.1466 40 14.6655 40 19.1354 40H20.8671C25.3349 40 28.8559 40 31.5591 39.6502C34.33 39.2912 36.5311 38.5321 38.1092 36.8056C39.6873 35.0791 40.1012 32.9786 39.9803 30.4391C39.8615 27.9628 39.2118 24.8205 38.3879 20.8335L38.3469 20.6288C37.7628 17.8028 37.2976 15.5553 36.6869 13.8084C36.0515 12.0037 35.2113 10.5712 33.7602 9.47907C32.3113 8.38698 30.6041 7.89767 28.5341 7.66698C28.2519 7.63545 27.969 7.60878 27.6857 7.58698M11.8414 10.4372C10.0891 10.6326 9.02952 11.0028 8.20154 11.6279C7.37561 12.2493 6.77922 13.1256 6.24226 14.6549C5.69506 16.2177 5.26263 18.2977 4.65599 21.2353C3.80342 25.36 3.19883 28.3051 3.09021 30.5619C2.98364 32.7758 3.37713 34.0595 4.25635 35.0251C5.13761 35.987 6.45541 36.573 8.87376 36.8856C11.3331 37.2056 14.6368 37.2093 19.2604 37.2093H20.736C25.3616 37.2093 28.6612 37.2056 31.1226 36.8874C33.541 36.573 34.8587 35.987 35.74 35.0251C36.6213 34.0614 37.0127 32.7777 36.9082 30.56C36.7975 28.307 36.1929 25.36 35.3404 21.2353C34.7337 18.2958 34.3033 16.2195 33.7541 14.6549C33.2171 13.1256 32.6228 12.2493 31.7948 11.626C30.9668 11.0028 29.9093 10.6326 28.155 10.4353C26.3597 10.2344 24.0294 10.2326 20.736 10.2326H19.2604C15.9669 10.2326 13.6367 10.2344 11.8414 10.4372Z" fill="black"/>
</svg>
