<svg width="21" height="20" viewBox="0 0 21 20" fill="none" xmlns="http://www.w3.org/2000/svg">
<path d="M8.6208 1.07927C9.38003 -0.359743 11.4409 -0.359744 12.2002 1.07926L13.9663 4.42674C14.2591 4.98168 14.7928 5.3694 15.411 5.47638L19.1404 6.12166C20.7436 6.39905 21.3805 8.35909 20.2465 9.52584L17.6086 12.24C17.1713 12.6899 16.9675 13.3173 17.0568 13.9383L17.5956 17.6846C17.8272 19.295 16.1599 20.5064 14.6998 19.7885L11.3034 18.1185C10.7403 17.8416 10.0807 17.8416 9.51762 18.1185L6.12117 19.7885C4.66111 20.5064 2.9938 19.295 3.2254 17.6846L3.76415 13.9383C3.85346 13.3173 3.64963 12.6899 3.21233 12.24L0.574458 9.52584C-0.559506 8.35909 0.0773494 6.39905 1.68054 6.12166L5.40995 5.47638C6.02821 5.3694 6.56186 4.98168 6.85465 4.42674L8.6208 1.07927Z" fill="white"/>
</svg>
