<svg width="27" height="26" viewBox="0 0 27 26" fill="none" xmlns="http://www.w3.org/2000/svg">
<path d="M12.523 0.710058C12.8305 -0.236378 14.1695 -0.236375 14.477 0.710061L16.9596 8.3506C17.0971 8.77386 17.4915 9.06042 17.9365 9.06042H25.9703C26.9654 9.06042 27.3792 10.3338 26.5741 10.9188L20.0747 15.6409C19.7146 15.9025 19.564 16.3662 19.7015 16.7894L22.1841 24.4299C22.4916 25.3764 21.4083 26.1634 20.6032 25.5785L14.1038 20.8564C13.7438 20.5948 13.2562 20.5948 12.8962 20.8564L6.39675 25.5785C5.59167 26.1634 4.50843 25.3764 4.81595 24.4299L7.29851 16.7894C7.43603 16.3662 7.28538 15.9025 6.92533 15.6409L0.425899 10.9188C-0.379188 10.3338 0.0345752 9.06042 1.02972 9.06042H9.06345C9.50849 9.06042 9.90292 8.77386 10.0404 8.3506L12.523 0.710058Z" fill="black"/>
</svg>
