<svg width="27" height="26" viewBox="0 0 27 26" fill="none" xmlns="http://www.w3.org/2000/svg">
<path d="M12.523 0.731627C12.8305 -0.21481 14.1695 -0.214807 14.477 0.73163L16.9596 8.37217C17.0971 8.79543 17.4915 9.08199 17.9365 9.08199H25.9703C26.9654 9.08199 27.3792 10.3554 26.5741 10.9403L20.0747 15.6625C19.7146 15.924 19.564 16.3877 19.7015 16.811L22.1841 24.4515C22.4916 25.3979 21.4083 26.185 20.6032 25.6L14.1038 20.8779C13.7438 20.6163 13.2562 20.6163 12.8962 20.8779L6.39675 25.6C5.59167 26.185 4.50843 25.398 4.81595 24.4515L7.29851 16.811C7.43603 16.3877 7.28538 15.924 6.92533 15.6625L0.425899 10.9403C-0.379188 10.3554 0.0345752 9.08199 1.02972 9.08199H9.06345C9.50849 9.08199 9.90292 8.79543 10.0404 8.37217L12.523 0.731627Z" fill="white"/>
<path d="M13.5001 0V19.9156C13.5001 20.2445 13.3427 20.5534 13.0767 20.7467L6.39686 25.5999C5.59178 26.1848 4.50854 25.3978 4.81606 24.4513L7.29862 16.8108C7.43614 16.3876 7.28549 15.9239 6.92544 15.6623L0.42601 10.9402C-0.379077 10.3552 0.0346859 9.08183 1.02983 9.08183H9.04777C9.50038 9.08183 9.89967 8.78559 10.0309 8.35241L12.3102 0.829195C12.4115 0.494796 12.6758 0.234821 13.0119 0.13909L13.5001 0Z" fill="black"/>
</svg>
