<svg width="49" height="38" viewBox="0 0 49 38" fill="none" xmlns="http://www.w3.org/2000/svg">
<path d="M1.08355 21.0341L2.09782 20.9458V20.9458L1.08355 21.0341ZM12.218 4.59294C12.4154 4.06646 12.1487 3.47962 11.6222 3.28218L3.04276 0.0647653C2.51628 -0.132672 1.92943 0.134067 1.732 0.660547C1.53456 1.18702 1.8013 1.77387 2.32778 1.97131L9.95395 4.83123L7.09402 12.4574C6.89659 12.9839 7.16333 13.5707 7.6898 13.7682C8.21628 13.9656 8.80313 13.6989 9.00057 13.1724L12.218 4.59294ZM11.2647 33.7603C11.3771 32.7485 11.3777 32.7485 11.3783 32.7486C11.3784 32.7486 11.3789 32.7487 11.3792 32.7487C11.3798 32.7487 11.3802 32.7488 11.3804 32.7488C11.381 32.7489 11.381 32.7489 11.3805 32.7488C11.3795 32.7487 11.3763 32.7483 11.3711 32.7476C11.3607 32.7463 11.342 32.7437 11.3157 32.7397C11.2629 32.7316 11.1795 32.7176 11.0694 32.6955C10.8491 32.6513 10.5237 32.5747 10.1258 32.4481C9.32831 32.1944 8.25121 31.7433 7.14566 30.9578C4.96844 29.4108 2.58079 26.4991 2.09782 20.9458L1.08355 21.0341L0.0692813 21.1223C0.60457 27.2772 3.3075 30.7286 5.96629 32.6177C7.27875 33.5502 8.55602 34.0854 9.5084 34.3885C9.9854 34.5403 10.3838 34.6347 10.6686 34.6919C10.8111 34.7205 10.9255 34.7399 11.0074 34.7524C11.0484 34.7587 11.0814 34.7633 11.1057 34.7665C11.1178 34.7681 11.1278 34.7693 11.1356 34.7703C11.1395 34.7707 11.1429 34.7711 11.1456 34.7714C11.147 34.7716 11.1483 34.7717 11.1494 34.7719C11.1499 34.7719 11.1507 34.772 11.1509 34.772C11.1516 34.7721 11.1523 34.7722 11.2647 33.7603ZM1.08355 21.0341L2.09782 20.9458C1.62166 15.4707 3.98848 11.5479 6.5206 8.9556C7.78978 7.65624 9.09267 6.70134 10.0786 6.0719C10.5705 5.75783 10.9806 5.52662 11.2641 5.37562C11.4058 5.30017 11.5155 5.24488 11.5878 5.20941C11.6239 5.19168 11.6506 5.17892 11.6672 5.17108C11.6755 5.16716 11.6813 5.16447 11.6845 5.16301C11.6861 5.16228 11.687 5.16185 11.6872 5.16174C11.6874 5.16168 11.6873 5.16169 11.6871 5.16179C11.687 5.16184 11.6867 5.16196 11.6867 5.16199C11.6864 5.16213 11.686 5.1623 11.2647 4.23545C10.8434 3.3086 10.843 3.30881 10.8425 3.30903C10.8423 3.30913 10.8417 3.30938 10.8413 3.30958C10.8404 3.30999 10.8393 3.31047 10.8381 3.31103C10.8357 3.31216 10.8325 3.3136 10.8287 3.31536C10.8211 3.31889 10.8108 3.32368 10.798 3.32975C10.7723 3.34188 10.7362 3.35914 10.6906 3.38155C10.5993 3.42636 10.4694 3.49187 10.3068 3.57848C9.98183 3.7516 9.52496 4.00955 8.98285 4.35566C7.90069 5.04655 6.46737 6.09603 5.06397 7.53281C2.25095 10.4127 -0.472803 14.8892 0.0692813 21.1223L1.08355 21.0341Z" fill="black"/>
<path d="M14.2537 24.5974L20.5608 14.7626V15.6483H12.5738V13.1438H23.4471V15.6636L17.873 24.5974H14.2537ZM24.3929 17.2671C24.4539 16.3712 24.7492 15.5974 25.2786 14.9459C25.808 14.2841 26.5105 13.7801 27.3861 13.434C28.2718 13.0776 29.2696 12.8995 30.3793 12.8995C31.4381 12.8995 32.3595 13.0624 33.1434 13.3882C33.9375 13.7038 34.5535 14.1466 34.9913 14.7168C35.4291 15.2869 35.6479 15.9487 35.6479 16.7021C35.6479 17.2824 35.4901 17.8271 35.1745 18.3361C34.8589 18.835 34.3651 19.3288 33.6932 19.8175C33.0213 20.296 32.1406 20.7999 31.0512 21.3293L27.9053 22.9023L27.7831 22.0929H35.9686V24.5974H24.6372V22.3983L29.5546 19.6342C30.3182 19.1964 30.9087 18.8299 31.3261 18.5347C31.7537 18.2292 32.0541 17.9492 32.2271 17.6947C32.4104 17.4402 32.502 17.1704 32.502 16.8853C32.502 16.5697 32.4155 16.2999 32.2424 16.0759C32.0795 15.8418 31.8301 15.6585 31.4941 15.5262C31.1581 15.3938 30.7458 15.3276 30.2571 15.3276C29.6463 15.3276 29.1474 15.4193 28.7605 15.6025C28.3736 15.7756 28.0835 16.0098 27.89 16.305C27.6966 16.5901 27.5795 16.9108 27.5388 17.2671H24.3929Z" fill="black"/>
<path d="M47.9164 16.9617L46.9022 17.0499V17.0499L47.9164 16.9617ZM36.782 33.4028C36.5846 33.9293 36.8513 34.5162 37.3778 34.7136L45.9572 37.931C46.4837 38.1285 47.0706 37.8617 47.268 37.3352C47.4654 36.8088 47.1987 36.2219 46.6722 36.0245L39.0461 33.1645L41.906 25.5384C42.1034 25.0119 41.8367 24.425 41.3102 24.2276C40.7837 24.0302 40.1969 24.2969 39.9994 24.8234L36.782 33.4028ZM37.7353 4.23545C37.6229 5.24732 37.6223 5.24726 37.6217 5.2472C37.6216 5.24718 37.6211 5.24712 37.6208 5.24709C37.6202 5.24703 37.6198 5.24698 37.6196 5.24695C37.619 5.24688 37.619 5.24688 37.6195 5.24694C37.6205 5.24707 37.6237 5.24745 37.6289 5.24814C37.6393 5.24951 37.658 5.25207 37.6843 5.25611C37.7371 5.26419 37.8205 5.27815 37.9306 5.30024C38.1509 5.34448 38.4763 5.42103 38.8742 5.54765C39.6717 5.80139 40.7488 6.25245 41.8543 7.03797C44.0316 8.58494 46.4192 11.4967 46.9022 17.0499L47.9164 16.9617L48.9307 16.8735C48.3954 10.7186 45.6925 7.26723 43.0337 5.3781C41.7212 4.44556 40.444 3.91034 39.4916 3.6073C39.0146 3.45553 38.6162 3.36107 38.3314 3.30389C38.1889 3.27528 38.0745 3.25593 37.9926 3.24338C37.9516 3.2371 37.9186 3.23252 37.8943 3.22932C37.8822 3.22772 37.8722 3.22647 37.8644 3.22553C37.8605 3.22505 37.8571 3.22466 37.8544 3.22434C37.853 3.22417 37.8517 3.22403 37.8506 3.22391C37.8501 3.22384 37.8493 3.22376 37.8491 3.22373C37.8484 3.22365 37.8477 3.22358 37.7353 4.23545ZM47.9164 16.9617L46.9022 17.0499C47.3783 22.525 45.0115 26.4478 42.4794 29.0402C41.2102 30.3395 39.9073 31.2944 38.9214 31.9239C38.4295 32.2379 38.0194 32.4692 37.7359 32.6202C37.5942 32.6956 37.4845 32.7509 37.4122 32.7864C37.3761 32.8041 37.3494 32.8169 37.3328 32.8247C37.3245 32.8286 37.3187 32.8313 37.3155 32.8328C37.3139 32.8335 37.313 32.8339 37.3128 32.834C37.3126 32.8341 37.3127 32.8341 37.3129 32.834C37.313 32.8339 37.3133 32.8338 37.3133 32.8338C37.3136 32.8336 37.314 32.8335 37.7353 33.7603C38.1566 34.6872 38.157 34.687 38.1575 34.6867C38.1577 34.6866 38.1583 34.6864 38.1587 34.6862C38.1596 34.6858 38.1607 34.6853 38.1619 34.6847C38.1643 34.6836 38.1675 34.6822 38.1713 34.6804C38.1789 34.6769 38.1892 34.6721 38.202 34.666C38.2277 34.6539 38.2638 34.6366 38.3094 34.6142C38.4007 34.5694 38.5306 34.5039 38.6932 34.4173C39.0182 34.2442 39.475 33.9862 40.0171 33.6401C41.0993 32.9492 42.5326 31.8997 43.936 30.463C46.7491 27.583 49.4728 23.1065 48.9307 16.8735L47.9164 16.9617Z" fill="black"/>
</svg>
