<svg width="37" height="32" viewBox="0 0 37 32" fill="none" xmlns="http://www.w3.org/2000/svg">
<path d="M18.8295 32V26.2118L31.2099 13.8824L37 19.6235L24.6196 32H18.8295ZM0 30.1176V24.8471C0 23.7804 0.274911 22.8003 0.824733 21.9068C1.37456 21.0133 2.10388 20.3307 3.01272 19.8588C4.95844 18.8863 6.93554 18.1572 8.94402 17.6715C10.9525 17.1859 12.9924 16.9424 15.0636 16.9412C16.2248 16.9412 17.3702 17.0121 18.5 17.1539C19.6298 17.2957 20.7595 17.5228 21.8893 17.8353L15.0636 24.6588V30.1176H0ZM31.2099 21.4588L32.9517 19.6235L31.2099 17.8824L29.4211 19.6706L31.2099 21.4588ZM9.74428 12.8471C8.2693 11.3725 7.53181 9.6 7.53181 7.52941C7.53181 5.45882 8.2693 3.68628 9.74428 2.21177C11.2193 0.737255 12.9924 0 15.0636 0C17.1349 0 18.908 0.737255 20.383 2.21177C21.8579 3.68628 22.5954 5.45882 22.5954 7.52941C22.5954 9.6 21.8579 11.3725 20.383 12.8471C18.908 14.3216 17.1349 15.0588 15.0636 15.0588C12.9924 15.0588 11.2193 14.3216 9.74428 12.8471Z" fill="black"/>
</svg>
