<svg width="32" height="32" viewBox="0 0 32 32" fill="none" xmlns="http://www.w3.org/2000/svg">
<path d="M0.340574 13.241L18.7586 31.6591C18.9211 31.8215 19.1284 31.9316 19.3539 31.9752C19.5795 32.0187 19.8129 31.9938 20.0241 31.9035L29.1379 28.0064C29.3104 27.9321 29.462 27.8168 29.5797 27.6705C29.6974 27.5242 29.7774 27.3513 29.8129 27.1669C29.8483 26.9825 29.8381 26.7922 29.7831 26.6127C29.7281 26.4331 29.63 26.2698 29.4974 26.1369L23.9644 20.6003C23.7935 20.4291 23.573 20.316 23.3342 20.2773C23.0954 20.2386 22.8505 20.2761 22.6342 20.3846L20.1248 21.6429L10.3603 11.8748L11.6186 9.36542C11.7271 9.14917 11.7646 8.90423 11.7259 8.66542C11.6872 8.42661 11.5742 8.20609 11.4029 8.0352L5.86635 2.50583C5.73345 2.37318 5.5701 2.27508 5.39056 2.22009C5.21103 2.1651 5.02076 2.15488 4.83636 2.19034C4.65197 2.2258 4.47906 2.30586 4.33273 2.42352C4.18639 2.54118 4.07108 2.69287 3.99686 2.86535L0.0925076 11.9755C0.00225964 12.1867 -0.0226855 12.4202 0.0208849 12.6457C0.0644552 12.8712 0.174546 13.0786 0.336979 13.241H0.340574ZM2.51206 12.1625L5.44571 5.33164L9.19188 9.0778L8.30387 10.8466L7.56327 12.3278L8.73529 13.5035L18.4962 23.2607L19.6718 24.4328L21.153 23.6922L22.9254 22.8078L26.6716 26.5503L19.8372 29.4804L2.51206 12.1625ZM15.8933 9.20363V6.90272C18.3342 6.90272 20.6752 7.87239 22.4012 9.59841C24.1272 11.3244 25.0969 13.6654 25.0969 16.1064H22.796C22.796 14.2756 22.0688 12.5199 20.7742 11.2254C19.4797 9.93088 17.724 9.20363 15.8933 9.20363ZM15.8933 2.30091V0C20.1649 0 24.2617 1.69691 27.2822 4.71744C30.3027 7.73797 31.9996 11.8347 31.9996 16.1064H29.6987C29.6987 12.4449 28.2442 8.93345 25.6552 6.34443C23.0662 3.75541 19.5547 2.30091 15.8933 2.30091Z" fill="black"/>
</svg>
