<svg width="55" height="55" viewBox="0 0 55 55" fill="none" xmlns="http://www.w3.org/2000/svg">
<g clip-path="url(#clip0_1_862)">
<path d="M15.2778 15.2779C15.683 15.2779 16.0716 15.1169 16.3581 14.8304C16.6446 14.5439 16.8056 14.1553 16.8056 13.7501V4.58344C16.8056 4.17825 16.6446 3.78965 16.3581 3.50314C16.0716 3.21663 15.683 3.05566 15.2778 3.05566C14.8726 3.05566 14.484 3.21663 14.1975 3.50314C13.911 3.78965 13.75 4.17825 13.75 4.58344V13.7501C13.75 14.1553 13.911 14.5439 14.1975 14.8304C14.484 15.1169 14.8726 15.2779 15.2778 15.2779Z" fill="black"/>
<path d="M39.7231 15.2779C40.1283 15.2779 40.5169 15.1169 40.8034 14.8304C41.0899 14.5439 41.2509 14.1553 41.2509 13.7501V4.58344C41.2509 4.17825 41.0899 3.78965 40.8034 3.50314C40.5169 3.21663 40.1283 3.05566 39.7231 3.05566C39.3179 3.05566 38.9293 3.21663 38.6428 3.50314C38.3563 3.78965 38.1953 4.17825 38.1953 4.58344V13.7501C38.1953 14.1553 38.3563 14.5439 38.6428 14.8304C38.9293 15.1169 39.3179 15.2779 39.7231 15.2779Z" fill="black"/>
<path d="M49.2704 9.16668H43.1592V13.75C43.1592 14.6414 42.8051 15.4963 42.1748 16.1267C41.5445 16.757 40.6896 17.1111 39.7981 17.1111C38.9067 17.1111 38.0518 16.757 37.4215 16.1267C36.7911 15.4963 36.437 14.6414 36.437 13.75V9.16668H18.6384V13.75C18.6384 14.6414 18.2843 15.4963 17.654 16.1267C17.0236 16.757 16.1687 17.1111 15.2773 17.1111C14.3859 17.1111 13.531 16.757 12.9006 16.1267C12.2703 15.4963 11.9162 14.6414 11.9162 13.75V9.16668H5.80508C5.4415 9.16254 5.08079 9.23136 4.74427 9.36905C4.40776 9.50675 4.10227 9.71053 3.84588 9.96834C3.58949 10.2262 3.3874 10.5328 3.25157 10.87C3.11574 11.2073 3.04893 11.5684 3.05508 11.932V46.1236C3.04901 46.4808 3.11336 46.8356 3.24444 47.1679C3.37553 47.5001 3.57079 47.8033 3.81906 48.0601C4.06734 48.3169 4.36377 48.5223 4.69143 48.6645C5.01909 48.8067 5.37155 48.8829 5.72869 48.8889H49.2704C49.6275 48.8829 49.98 48.8067 50.3076 48.6645C50.6353 48.5223 50.9317 48.3169 51.18 48.0601C51.4283 47.8033 51.6235 47.5001 51.7546 47.1679C51.8857 46.8356 51.95 46.4808 51.944 46.1236V11.932C51.95 11.5748 51.8857 11.22 51.7546 10.8877C51.6235 10.5555 51.4283 10.2523 51.18 9.99548C50.9317 9.73869 50.6353 9.53333 50.3076 9.39112C49.98 9.24891 49.6275 9.17265 49.2704 9.16668ZM39.6301 25.3306L24.8565 40.1042L16.8051 31.9917C16.4484 31.5994 16.2552 31.0855 16.265 30.5554C16.2748 30.0252 16.487 29.5189 16.858 29.1401C17.229 28.7613 17.7308 28.5386 18.2606 28.5177C18.7904 28.4969 19.3082 28.6793 19.7079 29.0278L24.8717 34.1917L36.6662 22.3972C36.8598 22.2036 37.0896 22.05 37.3426 21.9453C37.5956 21.8405 37.8667 21.7866 38.1405 21.7866C38.4143 21.7866 38.6854 21.8405 38.9384 21.9453C39.1913 22.05 39.4212 22.2036 39.6148 22.3972C39.8084 22.5908 39.962 22.8207 40.0668 23.0737C40.1716 23.3266 40.2255 23.5977 40.2255 23.8715C40.2255 24.1453 40.1716 24.4165 40.0668 24.6694C39.962 24.9224 39.8084 25.1522 39.6148 25.3458L39.6301 25.3306Z" fill="url(#paint0_linear_1_862)"/>
</g>
<defs>
<linearGradient id="paint0_linear_1_862" x1="3" y1="49" x2="56.5" y2="14" gradientUnits="userSpaceOnUse">
<stop/>
<stop offset="1" stop-color="white" stop-opacity="0"/>
</linearGradient>
<clipPath id="clip0_1_862">
<rect width="55" height="55" fill="white"/>
</clipPath>
</defs>
</svg>
