<svg width="50" height="50" viewBox="0 0 50 50" fill="none" xmlns="http://www.w3.org/2000/svg">
<mask id="path-1-inside-1_0_55" fill="white">
<path d="M46.3638 46.8179H4.54547V4.54541H46.3638V46.8179ZM25.0005 13.6362C21.9867 13.6362 19.0955 14.8333 16.9644 16.9644C14.8333 19.0955 13.6363 21.9867 13.6363 25.0005C13.6364 28.0141 14.8334 30.9047 16.9644 33.0356C19.0955 35.1667 21.9867 36.3638 25.0005 36.3638C28.0142 36.3636 30.9047 35.1666 33.0357 33.0356C35.1667 30.9047 36.3637 28.0141 36.3638 25.0005C36.3638 21.9867 35.1668 19.0955 33.0357 16.9644C30.9047 14.8334 28.0142 13.6364 25.0005 13.6362ZM25.0005 18.1821C26.8087 18.1823 28.5423 18.9007 29.8209 20.1792C31.0995 21.4579 31.8179 23.1922 31.8179 25.0005C31.8178 26.8086 31.0994 28.5423 29.8209 29.8208C28.5423 31.0993 26.8087 31.8177 25.0005 31.8179C23.1923 31.8179 21.4579 31.0995 20.1793 29.8208C18.9007 28.5423 18.1823 26.8086 18.1822 25.0005C18.1822 23.1922 18.9006 21.4579 20.1793 20.1792C21.4579 18.9005 23.1923 18.1821 25.0005 18.1821ZM38.6363 9.09131C38.0337 9.09134 37.456 9.33038 37.0298 9.75635C36.6036 10.1826 36.3638 10.761 36.3638 11.3638C36.3639 11.9665 36.6037 12.544 37.0298 12.9702C37.456 13.3964 38.0336 13.6362 38.6363 13.6362C39.2391 13.6362 39.8175 13.3964 40.2437 12.9702C40.6697 12.5441 40.9087 11.9663 40.9088 11.3638C40.9088 10.761 40.6699 10.1826 40.2437 9.75635C39.8175 9.33013 39.2391 9.09131 38.6363 9.09131Z"/>
</mask>
<path d="M46.3638 46.8179H4.54547V4.54541H46.3638V46.8179ZM25.0005 13.6362C21.9867 13.6362 19.0955 14.8333 16.9644 16.9644C14.8333 19.0955 13.6363 21.9867 13.6363 25.0005C13.6364 28.0141 14.8334 30.9047 16.9644 33.0356C19.0955 35.1667 21.9867 36.3638 25.0005 36.3638C28.0142 36.3636 30.9047 35.1666 33.0357 33.0356C35.1667 30.9047 36.3637 28.0141 36.3638 25.0005C36.3638 21.9867 35.1668 19.0955 33.0357 16.9644C30.9047 14.8334 28.0142 13.6364 25.0005 13.6362ZM25.0005 18.1821C26.8087 18.1823 28.5423 18.9007 29.8209 20.1792C31.0995 21.4579 31.8179 23.1922 31.8179 25.0005C31.8178 26.8086 31.0994 28.5423 29.8209 29.8208C28.5423 31.0993 26.8087 31.8177 25.0005 31.8179C23.1923 31.8179 21.4579 31.0995 20.1793 29.8208C18.9007 28.5423 18.1823 26.8086 18.1822 25.0005C18.1822 23.1922 18.9006 21.4579 20.1793 20.1792C21.4579 18.9005 23.1923 18.1821 25.0005 18.1821ZM38.6363 9.09131C38.0337 9.09134 37.456 9.33038 37.0298 9.75635C36.6036 10.1826 36.3638 10.761 36.3638 11.3638C36.3639 11.9665 36.6037 12.544 37.0298 12.9702C37.456 13.3964 38.0336 13.6362 38.6363 13.6362C39.2391 13.6362 39.8175 13.3964 40.2437 12.9702C40.6697 12.5441 40.9087 11.9663 40.9088 11.3638C40.9088 10.761 40.6699 10.1826 40.2437 9.75635C39.8175 9.33013 39.2391 9.09131 38.6363 9.09131Z" fill="white"/>
<path d="M46.3638 46.8179V76.8179H76.3638V46.8179H46.3638ZM4.54547 46.8179H-25.4545V76.8179H4.54547V46.8179ZM4.54547 4.54541V-25.4546H-25.4545V4.54541H4.54547ZM46.3638 4.54541H76.3638V-25.4546H46.3638V4.54541ZM25.0005 13.6362L25.0018 -16.3638H25.0005V13.6362ZM13.6363 25.0005H-16.3637V25.0018L13.6363 25.0005ZM16.9644 33.0356L-4.24879 54.2488H-4.24879L16.9644 33.0356ZM25.0005 36.3638V66.3638H25.0018L25.0005 36.3638ZM36.3638 25.0005L66.3638 25.0018V25.0005H36.3638ZM33.0357 16.9644L54.2489 -4.24885V-4.24885L33.0357 16.9644ZM25.0005 18.1821L25.0027 -11.8179H25.0005V18.1821ZM29.8209 20.1792L51.0341 -1.034V-1.03401L29.8209 20.1792ZM31.8179 25.0005L61.8179 25.0026V25.0005H31.8179ZM25.0005 31.8179V61.8179H25.0027L25.0005 31.8179ZM20.1793 29.8208L-1.03394 51.034H-1.03394L20.1793 29.8208ZM18.1822 25.0005H-11.8178V25.0026L18.1822 25.0005ZM38.6363 9.09131V-20.9087H38.6345L38.6363 9.09131ZM37.0298 9.75635L15.8213 -11.4616L15.8166 -11.4569L37.0298 9.75635ZM36.3638 11.3638H6.36383V11.3655L36.3638 11.3638ZM37.0298 12.9702L15.8166 34.1834L15.8167 34.1834L37.0298 12.9702ZM38.6363 13.6362L38.6345 43.6362H38.6363V13.6362ZM40.2437 12.9702L61.4569 34.1834L61.4616 34.1787L40.2437 12.9702ZM40.9088 11.3638L70.9088 11.3655V11.3638H40.9088ZM40.2437 9.75635L61.4569 -11.4569L61.4569 -11.4569L40.2437 9.75635ZM46.3638 46.8179V16.8179H4.54547V46.8179V76.8179H46.3638V46.8179ZM4.54547 46.8179H34.5455V4.54541H4.54547H-25.4545V46.8179H4.54547ZM4.54547 4.54541V34.5454H46.3638V4.54541V-25.4546H4.54547V4.54541ZM46.3638 4.54541H16.3638V46.8179H46.3638H76.3638V4.54541H46.3638ZM25.0005 13.6362V-16.3638C14.034 -16.3638 3.51103 -12.0087 -4.24879 -4.24885L16.9644 16.9644L38.1776 38.1776C34.68 41.6752 29.9395 43.6362 25.0005 43.6362V13.6362ZM16.9644 16.9644L-4.24879 -4.24885C-12.0086 3.51097 -16.3637 14.0339 -16.3637 25.0005H13.6363H43.6363C43.6363 29.9394 41.6752 34.6799 38.1776 38.1776L16.9644 16.9644ZM13.6363 25.0005L-16.3637 25.0018C-16.3632 35.9691 -12.0072 46.4904 -4.24879 54.2488L16.9644 33.0356L38.1776 11.8224C41.6741 15.3189 43.6361 20.0592 43.6363 24.9992L13.6363 25.0005ZM16.9644 33.0356L-4.24879 54.2488C3.51103 62.0087 14.034 66.3638 25.0005 66.3638V36.3638V6.36377C29.9395 6.36377 34.68 8.32481 38.1776 11.8224L16.9644 33.0356ZM25.0005 36.3638L25.0018 66.3638C35.9692 66.3633 46.4905 62.0073 54.2489 54.2488L33.0357 33.0356L11.8225 11.8224C15.319 8.32597 20.0592 6.36398 24.9993 6.36377L25.0005 36.3638ZM33.0357 33.0356L54.2489 54.2488C62.0073 46.4904 66.3634 35.9691 66.3638 25.0018L36.3638 25.0005L6.36383 24.9992C6.36404 20.0592 8.32603 15.3189 11.8225 11.8224L33.0357 33.0356ZM36.3638 25.0005H66.3638C66.3638 14.0339 62.0087 3.51097 54.2489 -4.24885L33.0357 16.9644L11.8225 38.1776C8.32487 34.6799 6.36383 29.9394 6.36383 25.0005H36.3638ZM33.0357 16.9644L54.2489 -4.24885C46.4905 -12.0073 35.9692 -16.3633 25.0018 -16.3638L25.0005 13.6362L24.9993 43.6362C20.0592 43.636 15.319 41.674 11.8225 38.1776L33.0357 16.9644ZM25.0005 18.1821L24.9984 48.1821C18.8482 48.1817 12.9529 45.7376 8.60766 41.3924L29.8209 20.1792L51.0341 -1.03401C44.1318 -7.9363 34.7691 -11.8172 25.0027 -11.8179L25.0005 18.1821ZM29.8209 20.1792L8.60766 41.3924C4.26044 37.0452 1.81793 31.149 1.81793 25.0005H31.8179H61.8179C61.8179 15.2354 57.9386 5.87053 51.0341 -1.034L29.8209 20.1792ZM31.8179 25.0005L1.81793 24.9983C1.81837 18.8482 4.26244 12.9528 8.60766 8.6076L29.8209 29.8208L51.0341 51.034C57.9364 44.1317 61.8172 34.7691 61.8179 25.0026L31.8179 25.0005ZM29.8209 29.8208L8.60766 8.6076C12.9529 4.26238 18.8482 1.81831 24.9984 1.81787L25.0005 31.8179L25.0027 61.8179C34.7691 61.8172 44.1318 57.9363 51.0341 51.034L29.8209 29.8208ZM25.0005 31.8179V1.81787C31.1491 1.81787 37.0452 4.26038 41.3925 8.6076L20.1793 29.8208L-1.03394 51.034C5.87059 57.9385 15.2355 61.8179 25.0005 61.8179V31.8179ZM20.1793 29.8208L41.3925 8.6076C45.7377 12.9528 48.1818 18.8482 48.1822 24.9983L18.1822 25.0005L-11.8178 25.0026C-11.8171 34.7691 -7.93624 44.1317 -1.03394 51.034L20.1793 29.8208ZM18.1822 25.0005H48.1822C48.1822 31.149 45.7397 37.0452 41.3925 41.3924L20.1793 20.1792L-1.03394 -1.034C-7.93848 5.87053 -11.8178 15.2354 -11.8178 25.0005H18.1822ZM20.1793 20.1792L41.3925 41.3924C37.0452 45.7396 31.1491 48.1821 25.0005 48.1821V18.1821V-11.8179C15.2355 -11.8179 5.87059 -7.93854 -1.03394 -1.034L20.1793 20.1792ZM38.6363 9.09131L38.6345 -20.9087C30.0857 -20.9082 21.878 -17.5155 15.8213 -11.4616L37.0298 9.75635L58.2384 30.9742C53.034 36.1763 45.9817 39.0909 38.638 39.0913L38.6363 9.09131ZM37.0298 9.75635L15.8166 -11.4569C9.76911 -5.40932 6.36383 2.79776 6.36383 11.3638H36.3638H66.3638C66.3638 18.7242 63.4381 25.7745 58.243 30.9696L37.0298 9.75635ZM36.3638 11.3638L6.36383 11.3655C6.36433 19.9427 9.77792 28.1447 15.8166 34.1834L37.0298 12.9702L58.243 -8.24299C63.4294 -3.05664 66.3634 3.9903 66.3638 11.362L36.3638 11.3638ZM37.0298 12.9702L15.8167 34.1834C21.8554 40.2221 30.0574 43.6357 38.6345 43.6362L38.6363 13.6362L38.638 -16.3638C46.0098 -16.3633 53.0567 -13.4293 58.243 -8.24301L37.0298 12.9702ZM38.6363 13.6362V43.6362C47.2023 43.6362 55.4094 40.231 61.4569 34.1834L40.2437 12.9702L19.0305 -8.24299C24.2256 -13.4381 31.2758 -16.3638 38.6363 -16.3638V13.6362ZM40.2437 12.9702L61.4616 34.1787C67.5156 28.1221 70.9082 19.9143 70.9088 11.3655L40.9088 11.3638L10.9088 11.362C10.9092 4.01835 13.8238 -3.03397 19.0258 -8.23832L40.2437 12.9702ZM40.9088 11.3638H70.9088C70.9088 2.8308 67.5278 -5.38598 61.4569 -11.4569L40.2437 9.75635L19.0305 30.9696C13.8121 25.7511 10.9088 18.6912 10.9088 11.3638H40.9088ZM40.2437 9.75635L61.4569 -11.4569C55.386 -17.5277 47.1693 -20.9087 38.6363 -20.9087V9.09131V39.0913C31.3088 39.0913 24.2489 36.188 19.0305 30.9696L40.2437 9.75635Z" fill="white" mask="url(#path-1-inside-1_0_55)"/>
<mask id="path-3-inside-2_0_55" fill="white">
<path fill-rule="evenodd" clip-rule="evenodd" d="M9.09091 0C6.67985 0 4.36754 0.95779 2.66267 2.66267C0.95779 4.36754 0 6.67985 0 9.09091V40.9091C0 43.3201 0.95779 45.6325 2.66267 47.3373C4.36754 49.0422 6.67985 50 9.09091 50H40.9091C43.3201 50 45.6325 49.0422 47.3373 47.3373C49.0422 45.6325 50 43.3201 50 40.9091V9.09091C50 6.67985 49.0422 4.36754 47.3373 2.66267C45.6325 0.95779 43.3201 0 40.9091 0H9.09091ZM40.9091 4.54545H9.09091C7.88538 4.54545 6.72923 5.02435 5.87679 5.87679C5.02435 6.72923 4.54545 7.88538 4.54545 9.09091V40.9091C4.54545 42.1146 5.02435 43.2708 5.87679 44.1232C6.72923 44.9757 7.88538 45.4545 9.09091 45.4545H40.9091C42.1146 45.4545 43.2708 44.9757 44.1232 44.1232C44.9757 43.2708 45.4545 42.1146 45.4545 40.9091V9.09091C45.4545 7.88538 44.9757 6.72923 44.1232 5.87679C43.2708 5.02435 42.1146 4.54545 40.9091 4.54545Z"/>
</mask>
<path fill-rule="evenodd" clip-rule="evenodd" d="M9.09091 0C6.67985 0 4.36754 0.95779 2.66267 2.66267C0.95779 4.36754 0 6.67985 0 9.09091V40.9091C0 43.3201 0.95779 45.6325 2.66267 47.3373C4.36754 49.0422 6.67985 50 9.09091 50H40.9091C43.3201 50 45.6325 49.0422 47.3373 47.3373C49.0422 45.6325 50 43.3201 50 40.9091V9.09091C50 6.67985 49.0422 4.36754 47.3373 2.66267C45.6325 0.95779 43.3201 0 40.9091 0H9.09091ZM40.9091 4.54545H9.09091C7.88538 4.54545 6.72923 5.02435 5.87679 5.87679C5.02435 6.72923 4.54545 7.88538 4.54545 9.09091V40.9091C4.54545 42.1146 5.02435 43.2708 5.87679 44.1232C6.72923 44.9757 7.88538 45.4545 9.09091 45.4545H40.9091C42.1146 45.4545 43.2708 44.9757 44.1232 44.1232C44.9757 43.2708 45.4545 42.1146 45.4545 40.9091V9.09091C45.4545 7.88538 44.9757 6.72923 44.1232 5.87679C43.2708 5.02435 42.1146 4.54545 40.9091 4.54545Z" fill="white"/>
<path d="M0 9.09091H-30H0ZM0 40.9091H-30H0ZM9.09091 4.54545V-25.4545V4.54545ZM4.54545 9.09091H-25.4545H4.54545ZM4.54545 40.9091H-25.4545H4.54545ZM9.09091 0V-30C-1.27665 -30 -11.2196 -25.8815 -18.5505 -18.5505L2.66267 2.66267L23.8759 23.8759C19.9547 27.7971 14.6363 30 9.09091 30V0ZM2.66267 2.66267L-18.5505 -18.5505C-25.8815 -11.2196 -30 -1.27665 -30 9.09091H0H30C30 14.6363 27.7971 19.9547 23.8759 23.8759L2.66267 2.66267ZM0 9.09091H-30V40.9091H0H30V9.09091H0ZM0 40.9091H-30C-30 51.2767 -25.8815 61.2196 -18.5505 68.5505L2.66267 47.3373L23.8759 26.1241C27.7971 30.0453 30 35.3636 30 40.9091H0ZM2.66267 47.3373L-18.5505 68.5505C-11.2196 75.8815 -1.27666 80 9.09091 80V50V20C14.6364 20 19.9547 22.2029 23.8759 26.1241L2.66267 47.3373ZM9.09091 50V80H40.9091V50V20H9.09091V50ZM40.9091 50V80C51.2767 80 61.2196 75.8815 68.5505 68.5505L47.3373 47.3373L26.1241 26.1241C30.0453 22.2029 35.3636 20 40.9091 20V50ZM47.3373 47.3373L68.5505 68.5505C75.8815 61.2196 80 51.2767 80 40.9091H50H20C20 35.3636 22.2029 30.0453 26.1241 26.1241L47.3373 47.3373ZM50 40.9091H80V9.09091H50H20V40.9091H50ZM50 9.09091H80C80 -1.27666 75.8815 -11.2196 68.5505 -18.5505L47.3373 2.66267L26.1241 23.8759C22.2029 19.9547 20 14.6364 20 9.09091H50ZM47.3373 2.66267L68.5505 -18.5505C61.2196 -25.8815 51.2767 -30 40.9091 -30V0V30C35.3636 30 30.0453 27.7971 26.1241 23.8759L47.3373 2.66267ZM40.9091 0V-30H9.09091V0V30H40.9091V0ZM40.9091 4.54545V-25.4545H9.09091V4.54545V34.5455H40.9091V4.54545ZM9.09091 4.54545V-25.4545C-0.0711103 -25.4545 -8.85788 -21.8149 -15.3364 -15.3364L5.87679 5.87679L27.09 27.09C22.3163 31.8636 15.8419 34.5455 9.09091 34.5455V4.54545ZM5.87679 5.87679L-15.3364 -15.3364C-21.8149 -8.85788 -25.4545 -0.0711103 -25.4545 9.09091H4.54545H34.5455C34.5455 15.8419 31.8636 22.3163 27.09 27.09L5.87679 5.87679ZM4.54545 9.09091H-25.4545V40.9091H4.54545H34.5455V9.09091H4.54545ZM4.54545 40.9091H-25.4545C-25.4545 50.0711 -21.8149 58.8579 -15.3364 65.3364L5.87679 44.1232L27.09 22.91C31.8636 27.6837 34.5455 34.1581 34.5455 40.9091H4.54545ZM5.87679 44.1232L-15.3364 65.3364C-8.8579 71.8149 -0.0711286 75.4545 9.09091 75.4545V45.4545V15.4545C15.8419 15.4545 22.3163 18.1364 27.09 22.91L5.87679 44.1232ZM9.09091 45.4545V75.4545H40.9091V45.4545V15.4545H9.09091V45.4545ZM40.9091 45.4545V75.4545C50.0711 75.4545 58.8579 71.8149 65.3364 65.3364L44.1232 44.1232L22.91 22.91C27.6836 18.1364 34.1581 15.4545 40.9091 15.4545V45.4545ZM44.1232 44.1232L65.3364 65.3364C71.8149 58.8579 75.4545 50.0711 75.4545 40.9091H45.4545H15.4545C15.4545 34.1581 18.1364 27.6836 22.91 22.91L44.1232 44.1232ZM45.4545 40.9091H75.4545V9.09091H45.4545H15.4545V40.9091H45.4545ZM45.4545 9.09091H75.4545C75.4545 -0.0711286 71.8149 -8.8579 65.3364 -15.3364L44.1232 5.87679L22.91 27.09C18.1364 22.3163 15.4545 15.8419 15.4545 9.09091H45.4545ZM44.1232 5.87679L65.3364 -15.3364C58.8579 -21.8149 50.0711 -25.4545 40.9091 -25.4545V4.54545V34.5455C34.1581 34.5455 27.6837 31.8636 22.91 27.09L44.1232 5.87679Z" fill="white" mask="url(#path-3-inside-2_0_55)"/>
<rect width="11" height="50" fill="white"/>
<rect x="43" width="7" height="50" fill="white"/>
</svg>
