<svg width="50" height="50" viewBox="0 0 50 50" fill="none" xmlns="http://www.w3.org/2000/svg">
<mask id="path-1-inside-1_0_68" fill="white">
<path d="M44.0472 0H5.95278C4.37445 0.00147095 2.8612 0.629109 1.74515 1.74515C0.629109 2.8612 0.00147095 4.37445 0 5.95278V44.0472C0 47.3333 2.66944 50 5.95278 50H44.0472C45.6255 49.9985 47.1388 49.3709 48.2548 48.2548C49.3709 47.1388 49.9985 45.6255 50 44.0472V5.95278C49.9985 4.37445 49.3709 2.8612 48.2548 1.74515C47.1388 0.629109 45.6255 0.00147095 44.0472 0ZM39.2917 21.8139C37.5395 21.984 35.7767 21.625 34.2306 20.7833C32.9265 20.0802 31.8189 19.0624 31.0083 17.8222V31.5556C31.0083 33.563 30.413 35.5254 29.2977 37.1946C28.1825 38.8637 26.5972 40.1647 24.7426 40.9329C22.8879 41.7012 20.8471 41.9022 18.8782 41.5105C16.9093 41.1189 15.1007 40.1522 13.6812 38.7327C12.2617 37.3132 11.295 35.5046 10.9034 33.5357C10.5117 31.5668 10.7127 29.526 11.481 27.6713C12.2492 25.8166 13.5501 24.2314 15.2193 23.1161C16.8885 22.0008 18.8509 21.4056 20.8583 21.4056C21.0694 21.4056 21.275 21.425 21.4833 21.4361V26.4389C21.275 26.4139 21.0722 26.375 20.8583 26.375C19.4844 26.375 18.1667 26.9208 17.1951 27.8923C16.2236 28.8639 15.6778 30.1816 15.6778 31.5556C15.6778 32.9295 16.2236 34.2472 17.1951 35.2188C18.1667 36.1903 19.4844 36.7361 20.8583 36.7361C23.7194 36.7361 26.2472 34.4833 26.2472 31.6222L26.2972 8.29444H31.0833C31.3024 10.3734 32.2449 12.3093 33.7463 13.764C35.2476 15.2186 37.2124 16.0995 39.2972 16.2528V21.8139"/>
</mask>
<path d="M44.0472 0H5.95278C4.37445 0.00147095 2.8612 0.629109 1.74515 1.74515C0.629109 2.8612 0.00147095 4.37445 0 5.95278V44.0472C0 47.3333 2.66944 50 5.95278 50H44.0472C45.6255 49.9985 47.1388 49.3709 48.2548 48.2548C49.3709 47.1388 49.9985 45.6255 50 44.0472V5.95278C49.9985 4.37445 49.3709 2.8612 48.2548 1.74515C47.1388 0.629109 45.6255 0.00147095 44.0472 0ZM39.2917 21.8139C37.5395 21.984 35.7767 21.625 34.2306 20.7833C32.9265 20.0802 31.8189 19.0624 31.0083 17.8222V31.5556C31.0083 33.563 30.413 35.5254 29.2977 37.1946C28.1825 38.8637 26.5972 40.1647 24.7426 40.9329C22.8879 41.7012 20.8471 41.9022 18.8782 41.5105C16.9093 41.1189 15.1007 40.1522 13.6812 38.7327C12.2617 37.3132 11.295 35.5046 10.9034 33.5357C10.5117 31.5668 10.7127 29.526 11.481 27.6713C12.2492 25.8166 13.5501 24.2314 15.2193 23.1161C16.8885 22.0008 18.8509 21.4056 20.8583 21.4056C21.0694 21.4056 21.275 21.425 21.4833 21.4361V26.4389C21.275 26.4139 21.0722 26.375 20.8583 26.375C19.4844 26.375 18.1667 26.9208 17.1951 27.8923C16.2236 28.8639 15.6778 30.1816 15.6778 31.5556C15.6778 32.9295 16.2236 34.2472 17.1951 35.2188C18.1667 36.1903 19.4844 36.7361 20.8583 36.7361C23.7194 36.7361 26.2472 34.4833 26.2472 31.6222L26.2972 8.29444H31.0833C31.3024 10.3734 32.2449 12.3093 33.7463 13.764C35.2476 15.2186 37.2124 16.0995 39.2972 16.2528V21.8139" fill="white"/>
<path d="M44.0472 0L44.0752 -30L44.0612 -30H44.0472V0ZM5.95278 0V-30H5.9388L5.92482 -30L5.95278 0ZM0 5.95278L-30 5.92482L-30 5.9388V5.95278H0ZM44.0472 50V80H44.0612L44.0752 80L44.0472 50ZM50 44.0472L80 44.0752L80 44.0612V44.0472H50ZM50 5.95278H80V5.9388L80 5.92482L50 5.95278ZM34.2306 20.7833L48.5746 -5.56524L48.5212 -5.59431L48.4677 -5.62315L34.2306 20.7833ZM31.0083 17.8222L56.1205 1.40949L1.00833 -82.9145V17.8222H31.0083ZM21.4833 21.4361H51.4833V-7.00653L23.0811 -8.52131L21.4833 21.4361ZM21.4833 26.4389L17.909 56.2252L51.4833 60.2541V26.4389H21.4833ZM20.8583 26.375V-3.625V26.375ZM15.6778 31.5556H-14.3222H15.6778ZM20.8583 36.7361V66.7361V36.7361ZM26.2472 31.6222L-3.75271 31.5579L-3.75278 31.5901V31.6222H26.2472ZM26.2972 8.29444V-21.7056H-3.63855L-3.70271 8.23014L26.2972 8.29444ZM31.0833 8.29444L60.9182 5.15087L58.0884 -21.7056H31.0833V8.29444ZM39.2972 16.2528H69.2972V-11.6229L41.4965 -13.6665L39.2972 16.2528ZM44.0472 0V-30H5.95278V0V30H44.0472V0ZM5.95278 0L5.92482 -30C-3.60031 -29.9911 -12.7328 -26.2033 -19.4681 -19.4681L1.74515 1.74515L22.9584 22.9584C18.4552 27.4616 12.3492 29.9941 5.98074 30L5.95278 0ZM1.74515 1.74515L-19.4681 -19.4681C-26.2033 -12.7328 -29.9911 -3.60031 -30 5.92482L0 5.95278L30 5.98074C29.9941 12.3492 27.4616 18.4552 22.9584 22.9584L1.74515 1.74515ZM0 5.95278H-30V44.0472H0H30V5.95278H0ZM0 44.0472H-30C-30 63.911 -13.89 80 5.95278 80V50V20C19.2289 20 30 30.7557 30 44.0472H0ZM5.95278 50V80H44.0472V50V20H5.95278V50ZM44.0472 50L44.0752 80C53.6004 79.9911 62.7328 76.2033 69.468 69.468L48.2548 48.2548L27.0416 27.0416C31.5448 22.5385 37.6507 20.0059 44.0193 20L44.0472 50ZM48.2548 48.2548L69.468 69.468C76.2033 62.7328 79.9911 53.6004 80 44.0752L50 44.0472L20 44.0193C20.0059 37.6507 22.5385 31.5448 27.0416 27.0416L48.2548 48.2548ZM50 44.0472H80V5.95278H50H20V44.0472H50ZM50 5.95278L80 5.92482C79.9911 -3.60034 76.2033 -12.7328 69.468 -19.4681L48.2548 1.74515L27.0416 22.9584C22.5385 18.4552 20.0059 12.3492 20 5.98074L50 5.95278ZM48.2548 1.74515L69.468 -19.4681C62.7328 -26.2033 53.6003 -29.9911 44.0752 -30L44.0472 0L44.0193 30C37.6508 29.9941 31.5448 27.4615 27.0416 22.9584L48.2548 1.74515ZM39.2917 21.8139L36.3928 -8.04573C40.6101 -8.45515 44.8532 -7.59116 48.5746 -5.56524L34.2306 20.7833L19.8865 47.1319C26.7001 50.8412 34.469 52.4231 42.1905 51.6735L39.2917 21.8139ZM34.2306 20.7833L48.4677 -5.62315C51.5649 -3.95331 54.1955 -1.53584 56.1205 1.40949L31.0083 17.8222L5.89614 34.235C9.44219 39.6606 14.2881 44.1138 19.9934 47.1898L34.2306 20.7833ZM31.0083 17.8222H1.00833V31.5556H31.0083H61.0083V17.8222H31.0083ZM31.0083 31.5556H1.00833C1.00833 27.6296 2.17252 23.7918 4.35366 20.5275L29.2977 37.1946L54.2418 53.8617C58.6536 47.2591 61.0083 39.4965 61.0083 31.5556H31.0083ZM29.2977 37.1946L4.35366 20.5275C6.53481 17.2632 9.63495 14.7189 13.2621 13.2165L24.7426 40.9329L36.2231 68.6493C43.5595 65.6105 49.8301 60.4643 54.2418 53.8617L29.2977 37.1946ZM24.7426 40.9329L13.2621 13.2165C16.8892 11.7141 20.8804 11.321 24.7309 12.087L18.8782 41.5105L13.0255 70.9341C20.8138 72.4833 28.8866 71.6882 36.2231 68.6493L24.7426 40.9329ZM18.8782 41.5105L24.7309 12.087C28.5814 12.8529 32.1183 14.7434 34.8944 17.5195L13.6812 38.7327L-7.532 59.9459C-1.91692 65.561 5.23712 69.3849 13.0255 70.9341L18.8782 41.5105ZM13.6812 38.7327L34.8944 17.5195C37.6705 20.2955 39.561 23.8325 40.3269 27.683L10.9034 33.5357L-18.5202 39.3884C-16.971 47.1768 -13.1471 54.3308 -7.532 59.9459L13.6812 38.7327ZM10.9034 33.5357L40.3269 27.683C41.0928 31.5335 40.6997 35.5247 39.1973 39.1518L11.481 27.6713L-16.2354 16.1908C-19.2743 23.5273 -20.0694 31.6001 -18.5202 39.3884L10.9034 33.5357ZM11.481 27.6713L39.1973 39.1518C37.6949 42.7789 35.1507 45.8791 31.8864 48.0602L15.2193 23.1161L-1.44781 -1.82795C-8.05044 2.58379 -13.1966 8.85436 -16.2354 16.1908L11.481 27.6713ZM15.2193 23.1161L31.8864 48.0602C28.6221 50.2414 24.7843 51.4056 20.8583 51.4056V21.4056V-8.59444C12.9174 -8.59444 5.15483 -6.2397 -1.44781 -1.82795L15.2193 23.1161ZM20.8583 21.4056V51.4056C20.4537 51.4056 20.1158 51.3963 19.8695 51.3869C19.6274 51.3776 19.4448 51.367 19.3692 51.3625C19.3215 51.3596 19.2518 51.355 19.3735 51.3629C19.445 51.3676 19.6455 51.3807 19.8856 51.3935L21.4833 21.4361L23.0811 -8.52131C23.217 -8.51406 23.3136 -8.50755 23.2814 -8.50965C23.2749 -8.51008 23.2695 -8.51043 23.2524 -8.51155C23.2384 -8.51248 23.2162 -8.51393 23.1916 -8.51553C23.1428 -8.51869 23.0657 -8.52364 22.9746 -8.52912C22.6404 -8.54924 21.8473 -8.59444 20.8583 -8.59444V21.4056ZM21.4833 21.4361H-8.51667V26.4389H21.4833H51.4833V21.4361H21.4833ZM21.4833 26.4389L25.0577 -3.34742C25.313 -3.31678 25.5136 -3.28828 25.4481 -3.29736C25.4463 -3.2976 25.3631 -3.30919 25.2803 -3.32041C25.1875 -3.33299 25.0432 -3.35225 24.8693 -3.37384C24.2182 -3.45468 22.7351 -3.625 20.8583 -3.625V26.375V56.375C19.1954 56.375 17.9206 56.2241 17.4765 56.169C17.2712 56.1435 17.0888 56.1176 17.2077 56.1341C17.2455 56.1393 17.5495 56.1821 17.909 56.2252L21.4833 26.4389ZM20.8583 26.375V-3.625C11.5279 -3.625 2.57957 0.0815014 -4.01808 6.67914L17.1951 27.8923L38.4083 49.1056C33.7538 53.7601 27.4408 56.375 20.8583 56.375V26.375ZM17.1951 27.8923L-4.01808 6.67914C-10.6157 13.2768 -14.3222 22.2251 -14.3222 31.5556H15.6778H45.6778C45.6778 38.1381 43.0629 44.451 38.4083 49.1056L17.1951 27.8923ZM15.6778 31.5556H-14.3222C-14.3222 40.886 -10.6157 49.8343 -4.01808 56.432L17.1951 35.2188L38.4083 14.0056C43.0629 18.6601 45.6778 24.973 45.6778 31.5556H15.6778ZM17.1951 35.2188L-4.01808 56.432C2.57954 63.0296 11.5278 66.7361 20.8583 66.7361V36.7361V6.73611C27.4409 6.73611 33.7538 9.35103 38.4083 14.0056L17.1951 35.2188ZM20.8583 36.7361V66.7361C38.217 66.7361 56.2472 53.0497 56.2472 31.6222H26.2472H-3.75278C-3.75278 15.917 9.2219 6.73611 20.8583 6.73611V36.7361ZM26.2472 31.6222L56.2472 31.6865L56.2972 8.35874L26.2972 8.29444L-3.70271 8.23014L-3.75271 31.5579L26.2472 31.6222ZM26.2972 8.29444V38.2944H31.0833V8.29444V-21.7056H26.2972V8.29444ZM31.0833 8.29444L1.24849 11.438C2.20454 20.5117 6.31825 28.9609 12.8709 35.3097L33.7463 13.764L54.6217 -7.78175C58.1716 -4.34227 60.4002 0.235166 60.9182 5.15087L31.0833 8.29444ZM33.7463 13.764L12.8709 35.3097C19.4236 41.6585 27.9986 45.5032 37.0979 46.1721L39.2972 16.2528L41.4965 -13.6665C46.4262 -13.3041 51.0717 -11.2212 54.6217 -7.78175L33.7463 13.764ZM39.2972 16.2528H9.29722V21.8139H39.2972H69.2972V16.2528H39.2972Z" fill="white" mask="url(#path-1-inside-1_0_68)"/>
<rect width="8" height="50" fill="white"/>
<rect x="42" width="8" height="50" fill="white"/>
</svg>
