<svg width="37" height="27" viewBox="0 0 37 27" fill="none" xmlns="http://www.w3.org/2000/svg">
<path d="M3.7 3.6C3.7 1.61437 5.35922 0 7.4 0H24.05C26.0908 0 27.75 1.61437 27.75 3.6V5.4H30.6811C31.6639 5.4 32.6063 5.77687 33.3 6.45187L35.9189 9C36.6127 9.675 37 10.5919 37 11.5481V19.8C37 21.7856 35.3408 23.4 33.3 23.4H33.1092C32.508 25.4756 30.5423 27 28.2125 27C25.8827 27 23.9228 25.4756 23.3158 23.4H17.3842C16.783 25.4756 14.8173 27 12.4875 27C10.1577 27 8.19781 25.4756 7.59078 23.4H7.4C5.35922 23.4 3.7 21.7856 3.7 19.8V17.1H1.3875C0.618594 17.1 0 16.4981 0 15.75C0 15.0019 0.618594 14.4 1.3875 14.4H7.8625C8.63141 14.4 9.25 13.7981 9.25 13.05C9.25 12.3019 8.63141 11.7 7.8625 11.7H1.3875C0.618594 11.7 0 11.0981 0 10.35C0 9.60187 0.618594 9 1.3875 9H11.5625C12.3314 9 12.95 8.39812 12.95 7.65C12.95 6.90188 12.3314 6.3 11.5625 6.3H1.3875C0.618594 6.3 0 5.69812 0 4.95C0 4.20187 0.618594 3.6 1.3875 3.6H3.7ZM33.3 14.4V11.5481L30.6811 9H27.75V14.4H33.3ZM14.8 22.05C14.8 20.8069 13.7652 19.8 12.4875 19.8C11.2098 19.8 10.175 20.8069 10.175 22.05C10.175 23.2931 11.2098 24.3 12.4875 24.3C13.7652 24.3 14.8 23.2931 14.8 22.05ZM28.2125 24.3C29.4902 24.3 30.525 23.2931 30.525 22.05C30.525 20.8069 29.4902 19.8 28.2125 19.8C26.9348 19.8 25.9 20.8069 25.9 22.05C25.9 23.2931 26.9348 24.3 28.2125 24.3Z" fill="#FF593D"/>
</svg>
