<svg width="35" height="31" viewBox="0 0 35 31" fill="none" xmlns="http://www.w3.org/2000/svg">
<path d="M12.4841 16.1488C12.2823 15.9373 12.0409 15.7686 11.774 15.6526C11.5071 15.5365 11.2201 15.4754 10.9296 15.4729C10.6392 15.4703 10.3511 15.5263 10.0823 15.6377C9.81345 15.749 9.56921 15.9134 9.36382 16.1213C9.15843 16.3292 8.996 16.5765 8.88601 16.8486C8.77602 17.1207 8.72068 17.4123 8.7232 17.7063C8.72573 18.0003 8.78607 18.2909 8.90072 18.561C9.01536 18.8312 9.18201 19.0755 9.39094 19.2798L15.9534 25.9226C16.3637 26.3378 16.92 26.571 17.5 26.571C18.08 26.571 18.6363 26.3378 19.0466 25.9226L25.6091 19.2798C26.0075 18.8622 26.228 18.3028 26.223 17.7223C26.2181 17.1417 25.988 16.5863 25.5824 16.1758C25.1768 15.7652 24.6282 15.5323 24.0546 15.5273C23.4811 15.5222 22.9285 15.7454 22.5159 16.1488L19.6875 19.0119V6.64286H30.625C31.7853 6.64286 32.8981 7.10944 33.7186 7.93996C34.5391 8.77047 35 9.8969 35 11.0714V26.5714C35 27.746 34.5391 28.8724 33.7186 29.7029C32.8981 30.5334 31.7853 31 30.625 31H4.375C3.21468 31 2.10188 30.5334 1.28141 29.7029C0.460936 28.8724 0 27.746 0 26.5714V11.0714C0 9.8969 0.460936 8.77047 1.28141 7.93996C2.10188 7.10944 3.21468 6.64286 4.375 6.64286H15.3125V19.0119L12.4841 16.1488ZM15.3125 2.21429C15.3125 1.62702 15.543 1.06381 15.9532 0.648549C16.3634 0.23329 16.9198 0 17.5 0C18.0802 0 18.6366 0.23329 19.0468 0.648549C19.457 1.06381 19.6875 1.62702 19.6875 2.21429V6.64286H15.3125V2.21429Z" fill="#FF593D"/>
</svg>
