<svg width="35" height="35" viewBox="0 0 35 35" fill="none" xmlns="http://www.w3.org/2000/svg">
<path fill-rule="evenodd" clip-rule="evenodd" d="M23.3653 1.53127C23.6368 1.06538 24.0258 0.678793 24.4936 0.410099C24.9614 0.141404 25.4915 0 26.031 0C26.5706 0 27.1007 0.141404 27.5684 0.410099C28.0362 0.678793 28.4252 1.06538 28.6967 1.53127C29.1771 2.33626 29.5499 3.18625 29.8426 4.09374C30.7416 4.11207 31.6256 4.21291 32.4946 4.39624C34.8138 4.88873 35.8296 7.65619 34.2083 9.49117C33.5985 10.1792 32.9099 10.7934 32.1568 11.3211C32.402 12.1478 32.5705 12.9811 32.6622 13.8211C32.9224 16.2161 30.5556 18.0761 28.2739 17.0611C27.4819 16.7068 26.729 16.2711 26.0273 15.7611C25.3201 16.2778 24.5737 16.7111 23.7881 17.0611C21.5039 18.0761 19.1396 16.2136 19.3998 13.8211C19.4916 12.9811 19.6583 12.1478 19.9002 11.3211C19.148 10.7933 18.4602 10.1791 17.8512 9.49117C16.23 7.65619 17.2457 4.89123 19.5674 4.39624C20.4364 4.21291 21.3204 4.11207 22.2194 4.09374C22.508 3.18709 22.8899 2.33293 23.3653 1.53127ZM9.32732 18.6186C7.52187 18.1632 5.65667 17.9903 3.7982 18.1061L2.0469 18.2136C1.646 18.2179 1.25877 18.0681 0.965188 17.7953C0.671611 17.5225 0.494124 17.1474 0.469395 16.7475C0.444667 16.3477 0.574585 15.9536 0.832311 15.6467C1.09004 15.3399 1.45588 15.1436 1.85425 15.0986L3.60556 14.9886C5.78518 14.8547 7.97243 15.0571 10.0904 15.5886L12.9976 16.3211C13.7301 16.5049 14.4095 16.8574 14.9813 17.3506C15.553 17.8438 16.0013 18.464 16.2902 19.1613C16.5791 19.8587 16.7005 20.614 16.6449 21.3667C16.5893 22.1194 16.3581 22.8486 15.9698 23.496L18.1189 23.8785L27.8136 21.5785C28.9502 21.3076 30.1473 21.4757 31.1651 22.0494C32.1829 22.623 32.9462 23.5597 33.3021 24.6718C33.658 25.784 33.5803 26.9895 33.0844 28.0467C32.5886 29.104 31.7112 29.9351 30.6282 30.3734L22.6197 33.6234C18.3695 35.3472 13.6346 35.4557 9.30981 33.9284L1.00612 30.9884C0.624834 30.843 0.315546 30.5544 0.144305 30.1842C-0.0269352 29.814 -0.0465569 29.3916 0.0896303 29.0072C0.225818 28.6228 0.50702 28.3068 0.87319 28.1267C1.23936 27.9466 1.66148 27.9168 2.0494 28.0434L10.3531 30.9784C13.9558 32.2534 17.9012 32.1634 21.4413 30.7284L29.4498 27.4784C29.8042 27.3375 30.0919 27.0674 30.2547 26.7228C30.4176 26.3781 30.4435 25.9846 30.3273 25.6216C30.2111 25.2585 29.9614 24.9531 29.6285 24.7669C29.2957 24.5808 28.9046 24.5277 28.5341 24.6185L18.5242 26.9934C18.315 27.0441 18.0975 27.0492 17.8862 27.0084L8.2215 25.2785C7.82279 25.1958 7.47211 24.9609 7.24402 24.6238C7.01593 24.2867 6.92842 23.8741 7.00012 23.4735C7.07182 23.073 7.29705 22.7162 7.62793 22.479C7.95881 22.2418 8.36923 22.143 8.7719 22.2035L11.5139 22.691C11.945 22.7549 12.3841 22.6524 12.7422 22.4043C13.1002 22.1561 13.3502 21.7811 13.4414 21.3553C13.5325 20.9295 13.458 20.4851 13.2328 20.1123C13.0077 19.7395 12.6489 19.4664 12.2295 19.3485L9.32732 18.6186Z" fill="white"/>
</svg>
