<svg width="36" height="34" viewBox="0 0 36 34" fill="none" xmlns="http://www.w3.org/2000/svg">
<path d="M8.07422 18.3008H2.69141V18.0693C1.12371 17.5149 0 16.0212 0 14.2637V2.69238C0 1.20599 1.20514 0.000527831 2.69141 0H8.07422V18.3008Z" fill="#FFB9AD"/>
<path d="M30.168 0C32.9294 1.28851e-07 35.168 2.23858 35.168 5V29C35.168 31.7614 32.9294 34 30.168 34H13.168C10.4065 34 8.16797 31.7614 8.16797 29V18.3008H8.16309V5.26172C8.16309 5.26172 7.89409 2.74537 6.2793 1.60156C4.67063 0.46209 2.52794 0.00345752 2.51172 0H30.168Z" fill="#FF593D"/>
<mask id="path-3-inside-1_1303_96" fill="white">
<path d="M30.125 0C32.8864 1.28851e-07 35.125 2.23858 35.125 5V29C35.125 31.7614 32.8864 34 30.125 34H13.125C10.3636 34 8.125 31.7614 8.125 29V18.3008H2.78516V18.0693C1.21746 17.5149 0.09375 16.0212 0.09375 14.2637V2.69238C0.09375 1.25651 1.21851 0.0854386 2.63477 0.00683594C2.61547 0.00247668 2.60547 0 2.60547 0H30.125Z"/>
</mask>
<path d="M30.125 0V-1V-1V0ZM35.125 5H36.125V5H35.125ZM35.125 29H36.125V29H35.125ZM13.125 34V35V35V34ZM8.125 29H7.125V29H8.125ZM8.125 18.3008H9.125V17.3008H8.125V18.3008ZM2.78516 18.3008H1.78516V19.3008H2.78516V18.3008ZM2.78516 18.0693H3.78516V17.3623L3.11856 17.1266L2.78516 18.0693ZM2.63477 0.00683594L2.69018 1.0053L2.85515 -0.968578L2.63477 0.00683594ZM2.60547 0V-1L2.36512 0.970688L2.60547 0ZM30.125 0V1C32.3341 1 34.125 2.79086 34.125 5H35.125H36.125C36.125 1.68629 33.4387 -1 30.125 -1V0ZM35.125 5H34.125V29H35.125H36.125V5H35.125ZM35.125 29H34.125C34.125 31.2091 32.3341 33 30.125 33V34V35C33.4387 35 36.125 32.3137 36.125 29H35.125ZM30.125 34V33H13.125V34V35H30.125V34ZM13.125 34V33C10.9159 33 9.125 31.2091 9.125 29H8.125H7.125C7.125 32.3137 9.81129 35 13.125 35V34ZM8.125 29H9.125V18.3008H8.125H7.125V29H8.125ZM8.125 18.3008V17.3008H2.78516V18.3008V19.3008H8.125V18.3008ZM2.78516 18.3008H3.78516V18.0693H2.78516H1.78516V18.3008H2.78516ZM2.78516 18.0693L3.11856 17.1266C1.93718 16.7088 1.09375 15.5836 1.09375 14.2637H0.09375H-0.90625C-0.90625 16.4588 0.497749 18.3211 2.45176 19.0121L2.78516 18.0693ZM0.09375 14.2637H1.09375V2.69238H0.09375H-0.90625V14.2637H0.09375ZM0.09375 2.69238H1.09375C1.09375 1.79159 1.79954 1.05473 2.69018 1.0053L2.63477 0.00683594L2.57935 -0.991627C0.637475 -0.883853 -0.90625 0.721438 -0.90625 2.69238H0.09375ZM2.63477 0.00683594L2.85515 -0.968578C2.84897 -0.969973 2.84505 -0.970894 2.84346 -0.97127C2.84267 -0.971458 2.84246 -0.97151 2.84285 -0.971416C2.84304 -0.971369 2.84338 -0.971285 2.84388 -0.971164C2.84413 -0.971104 2.84441 -0.971034 2.84473 -0.970955C2.84489 -0.970915 2.84506 -0.970873 2.84524 -0.970828C2.84533 -0.970806 2.84543 -0.970783 2.84552 -0.97076C2.84557 -0.970748 2.84562 -0.970736 2.84567 -0.970724C2.84569 -0.970718 2.84571 -0.970712 2.84574 -0.970706C2.84575 -0.970703 2.84577 -0.970698 2.84578 -0.970697C2.84579 -0.970692 2.84581 -0.970688 2.60547 0C2.36512 0.970688 2.36514 0.970692 2.36516 0.970697C2.36517 0.970699 2.36519 0.970703 2.3652 0.970706C2.36522 0.970713 2.36525 0.970719 2.36528 0.970725C2.36533 0.970738 2.36538 0.970751 2.36543 0.970763C2.36554 0.970789 2.36564 0.970816 2.36575 0.970843C2.36597 0.970897 2.3662 0.970953 2.36644 0.971012C2.36692 0.97113 2.36744 0.971257 2.36799 0.971394C2.36911 0.971668 2.37039 0.971979 2.37182 0.972326C2.37468 0.97302 2.37818 0.973861 2.3823 0.974837C2.39054 0.976789 2.40126 0.979285 2.41438 0.98225L2.63477 0.00683594ZM2.60547 0V1H30.125V0V-1H2.60547V0Z" fill="#D21E00" mask="url(#path-3-inside-1_1303_96)"/>
<rect x="15.168" y="7.6499" width="13" height="1.7" fill="white"/>
<rect x="15.168" y="12.75" width="13" height="1.7" fill="white"/>
<rect x="15.168" y="17.8501" width="13" height="1.7" fill="white"/>
</svg>
